<svg width="868" height="880" viewBox="0 0 868 880" fill="none" xmlns="http://www.w3.org/2000/svg">
<path d="M646.857 154.896L650.673 156.41C786.965 210.495 847.832 359.085 847.817 480.643L646.857 154.896ZM646.857 154.896L642.754 155.007M646.857 154.896L642.754 155.007M642.754 155.007L199.754 167.007L196.018 167.109M642.754 155.007L196.018 167.109M196.018 167.109L192.571 168.552M196.018 167.109L192.571 168.552M192.571 168.552C58.0642 224.87 20 372.959 20 480.643M192.571 168.552L20 480.643M20 480.643C20 691.849 207.088 860 433.909 860M20 480.643L433.909 860M433.909 860C660.728 860 847.815 691.85 847.817 480.646L433.909 860ZM551.852 197.217C542.579 199.477 540.908 211.629 549.143 216.474C602.658 247.976 617.426 288.596 620.816 315.439C622.055 325.253 610.336 331.228 603.262 324.309C560.072 282.141 505.613 275.624 482.547 274.865C476.51 274.664 471.649 279.571 471.758 285.608C473.182 377.468 438.197 436.292 422.051 458.476C417.685 464.466 408.753 464.157 404.759 457.934C379.418 418.475 379.031 314.231 379.496 283.55C379.573 278.131 375.486 273.72 370.099 273.023C324.371 267.11 270.453 303.705 237.682 330.702C229.276 337.622 217.016 328.69 221.381 318.72C247.001 260.221 286.088 228.378 307.327 214.492C314.402 209.864 313.225 199.105 305.346 196.071" fill="#D13834" stroke="#BB2E2A" stroke-width="40"/>
<path d="M221.35 318.767L203.029 310.745C224.861 260.89 255.847 228.837 279.469 210.019C271.595 208.896 262.808 208.454 253.376 208.628C235.84 208.951 217.537 211.363 201.375 214.32L221.35 318.767ZM221.35 318.767L203.029 310.745C196.551 325.54 202.903 339.911 212.895 347.228C222.802 354.482 238.156 356.238 250.362 346.19L250.367 346.185M221.35 318.767L250.367 346.185M250.367 346.185C266.154 333.18 286.554 318.283 308.028 307.42C326.518 298.067 344.094 292.581 359.381 292.44C359.311 310.308 359.744 339.359 362.503 369.33C364.153 387.249 366.667 405.878 370.522 422.835C374.302 439.457 379.703 456.022 387.896 468.783C399.395 486.7 425.46 487.797 438.19 470.292C455.483 446.532 490.651 387.087 491.743 295.527C515.741 297.76 556.411 306.59 589.246 338.653C610.346 359.291 644.153 340.918 640.628 312.981L640.627 312.981M250.367 346.185L640.627 312.981M640.627 312.981C637.065 284.756 622.938 245.507 579.316 212.633C596.668 210.46 620.789 209.092 653.686 210.178L653.711 210.179M640.627 312.981L653.711 210.179M653.711 210.179L653.737 210.179M653.711 210.179L653.737 210.179M556.262 216.733C556.264 216.733 556.266 216.732 556.268 216.732M556.262 216.733L556.261 216.733L556.268 216.732M556.262 216.733C556.264 216.733 556.266 216.732 556.268 216.732M556.262 216.733L556.268 216.732M653.737 210.179C684.25 211.109 697.608 171.022 671.191 154.093L653.737 210.179ZM479.946 119.127C557.078 91.7709 633.009 129.623 671.189 154.092L479.946 119.127ZM479.946 119.127L479.946 67.668L479.946 67.6476M479.946 119.127V67.6476M479.946 67.6476C479.959 45.0445 464.006 20 437.02 20H402.607C375.613 20 359.666 45.0569 359.666 67.6476V125.857C322.886 120.032 250.416 116.314 180.335 158.173C151.882 175.164 167.49 220.521 201.373 214.32L479.946 67.6476ZM481.861 294.901L481.872 294.901L481.861 294.901ZM559.241 199.269C559.246 199.272 559.252 199.275 559.258 199.279C559.252 199.276 559.247 199.273 559.242 199.27L559.241 199.269Z" fill="#88C057" stroke="#BB2E2A" stroke-width="40"/>
<path d="M69.5236 435.036L69.5249 435.019C71.1075 412.676 75.6934 390.886 83.2408 370.225C89.9964 351.694 110.364 342.481 128.635 349.026L128.685 349.044L128.734 349.062C147.21 355.79 156.592 376.209 149.909 394.559L149.904 394.574L149.898 394.59C144.667 408.883 141.436 424.141 140.324 439.966L69.5236 435.036ZM69.5236 435.036L69.5224 435.053M69.5236 435.036L69.5224 435.053M69.5224 435.053C68.1774 454.521 82.8199 471.44 102.312 472.874M69.5224 435.053L102.312 472.874M102.312 472.874C103.203 472.946 104.088 472.98 104.94 472.98C123.44 472.98 139.011 458.685 140.324 439.969L102.312 472.874Z" fill="#ED7161" stroke="#BB2E2A" stroke-width="40"/>
<path d="M200.296 187C77.2957 238.5 40 375.424 40 480.643C40 679.114 216.366 840 433.909 840C651.451 840 827.817 679.114 827.817 480.643C827.833 363.969 769.296 225 643.296 175L200.296 187Z" fill="#D13834"/>
<path d="M660.399 170.931C620.739 145.513 546.248 110.094 474.683 142.819C467.794 145.977 459.946 141.008 459.946 133.423V67.6476C459.961 52.4461 449.636 40 437.02 40H402.607C389.991 40 379.666 52.4461 379.666 67.6476V137.324C379.666 143.903 373.706 148.888 367.251 147.556C338.194 141.565 262.744 132.246 190.591 175.343C180.714 181.241 186.442 196.721 197.774 194.647C231.366 188.501 275.577 184.275 305.454 196.071C313.287 199.152 314.417 209.864 307.373 214.477C286.15 228.332 247.001 260.19 221.35 318.767C216.985 328.736 229.245 337.668 237.651 330.749C270.422 303.751 324.34 267.172 370.068 273.07C375.455 273.766 379.542 278.163 379.464 283.596C379 314.278 379.387 418.521 404.728 457.98C408.722 464.203 417.67 464.513 422.019 458.522C438.165 436.339 473.166 377.514 471.726 285.655C471.633 279.618 476.479 274.71 482.516 274.912C505.581 275.655 560.041 282.172 603.23 324.355C610.305 331.275 622.023 325.3 620.785 315.485C617.395 288.627 602.611 248.007 549.096 216.505C540.969 211.722 542.347 199.554 551.496 197.31C569.979 192.774 601.837 188.455 654.346 190.189C665.012 190.514 669.362 176.674 660.399 170.931Z" fill="#88C057"/>
<path d="M104.94 452.98C104.584 452.98 104.212 452.965 103.856 452.934C95.3109 452.345 88.8866 444.946 89.4749 436.432C90.93 415.89 95.1406 395.936 102.029 377.081C104.955 369.047 113.81 364.96 121.89 367.855C129.925 370.78 134.042 379.681 131.117 387.716C125.219 403.83 121.612 420.936 120.373 438.568C119.801 446.742 113.005 452.98 104.94 452.98Z" fill="#ED7161"/>
</svg>
