<svg width="788" height="800" viewBox="0 0 788 800" fill="none" xmlns="http://www.w3.org/2000/svg">
<path d="M160.296 147C37.2957 198.5 0 335.424 0 440.643C0 639.114 176.366 800 393.909 800C611.451 800 787.817 639.114 787.817 440.643C787.833 323.969 729.296 185 603.296 135L160.296 147Z" fill="#D13834"/>
<path d="M620.399 130.931C580.739 105.513 506.248 70.0942 434.683 102.819C427.794 105.977 419.946 101.008 419.946 93.4229V27.6476C419.961 12.4461 409.636 0 397.02 0H362.607C349.991 0 339.666 12.4461 339.666 27.6476V97.3239C339.666 103.903 333.706 108.888 327.251 107.556C298.194 101.565 222.744 92.2464 150.591 135.343C140.714 141.241 146.442 156.721 157.774 154.647C191.366 148.501 235.577 144.275 265.454 156.071C273.287 159.152 274.417 169.864 267.373 174.477C246.15 188.332 207.001 220.19 181.35 278.767C176.985 288.736 189.245 297.668 197.651 290.749C230.422 263.751 284.34 227.172 330.068 233.07C335.455 233.766 339.542 238.163 339.464 243.596C339 274.278 339.387 378.521 364.728 417.98C368.722 424.203 377.67 424.513 382.019 418.522C398.165 396.339 433.166 337.514 431.726 245.655C431.633 239.618 436.479 234.71 442.516 234.912C465.581 235.655 520.041 242.172 563.23 284.355C570.305 291.275 582.023 285.3 580.785 275.485C577.395 248.627 562.611 208.007 509.096 176.505C500.969 171.722 502.347 159.554 511.496 157.31C529.979 152.774 561.837 148.455 614.346 150.189C625.012 150.514 629.362 136.674 620.399 130.931Z" fill="#88C057"/>
<path d="M64.9396 412.98C64.5835 412.98 64.212 412.965 63.856 412.934C55.3109 412.345 48.8866 404.946 49.4749 396.432C50.93 375.89 55.1406 355.936 62.0293 337.081C64.9551 329.047 73.8097 324.96 81.8904 327.855C89.9246 330.78 94.0423 339.681 91.1165 347.716C85.2186 363.83 81.6117 380.936 80.3733 398.568C79.8005 406.742 73.0047 412.98 64.9396 412.98Z" fill="#ED7161"/>
</svg>
