<svg width="1193" height="852" viewBox="0 0 1193 852" fill="none" xmlns="http://www.w3.org/2000/svg">
<path fill-rule="evenodd" clip-rule="evenodd" d="M419 147C296 198.5 258.704 335.424 258.704 440.643C258.704 529.12 293.754 610.128 351.876 672.742C355.395 657.424 369.114 646 385.5 646C404.554 646 420 661.446 420 680.5C420 695.865 409.955 708.884 396.075 713.349C464.998 767.361 554.629 800 652.613 800C807.337 800 941.232 718.615 1005.66 600.207C997.931 593.88 993 584.266 993 573.5C993 554.446 1008.45 539 1027.5 539C1028.86 539 1030.2 539.078 1031.51 539.231C1041.29 507.904 1046.52 474.831 1046.52 440.643C1046.54 323.969 988 185 862 135L419 147Z" fill="#D13834"/>
<path d="M879.103 130.931C839.443 105.513 764.952 70.0942 693.388 102.819C686.499 105.977 678.651 101.008 678.651 93.4229V27.6476C678.666 12.4461 668.341 0 655.724 0H621.312C608.696 0 598.37 12.4461 598.37 27.6476V97.3239C598.37 103.903 592.41 108.888 585.955 107.556C556.899 101.565 481.449 92.2464 409.295 135.343C399.419 141.241 405.147 156.721 416.478 154.647C450.07 148.501 494.282 144.275 524.158 156.071C531.991 159.152 533.121 169.864 526.078 174.477C504.855 188.332 465.705 220.19 440.055 278.767C435.689 288.736 447.949 297.668 456.355 290.749C489.127 263.751 543.044 227.172 588.773 233.07C594.16 233.766 598.246 238.163 598.169 243.596C597.705 274.278 598.092 378.521 623.433 417.98C627.427 424.203 636.374 424.513 640.724 418.522C656.87 396.339 691.871 337.514 690.431 245.655C690.338 239.618 695.183 234.71 701.221 234.912C724.286 235.655 778.745 242.172 821.935 284.355C829.009 291.275 840.728 285.3 839.49 275.485C836.099 248.627 821.316 208.007 767.801 176.505C759.674 171.722 761.052 159.554 770.2 157.31C788.684 152.774 820.542 148.455 873.051 150.189C883.716 150.514 888.066 136.674 879.103 130.931Z" fill="#88C057"/>
<path d="M323.644 412.98C323.288 412.98 322.916 412.965 322.56 412.934C314.015 412.345 307.591 404.946 308.179 396.432C309.634 375.89 313.845 355.936 320.733 337.081C323.659 329.047 332.514 324.96 340.594 327.855C348.629 330.78 352.746 339.681 349.821 347.716C343.923 363.83 340.316 380.936 339.077 398.568C338.505 406.742 331.709 412.98 323.644 412.98Z" fill="#ED7161"/>
<mask id="path-4-outside-1_482_26" maskUnits="userSpaceOnUse" x="-10.4044" y="310.996" width="417.941" height="480.533" fill="black">
<rect fill="white" x="-10.4044" y="310.996" width="417.941" height="480.533"/>
<path d="M299.783 416.546C312.141 431.859 320.716 450.08 325.507 471.211C330.298 492.341 330.421 512.479 325.875 531.625C321.256 550.446 313.425 566.406 302.381 579.505C280.117 606.428 254.519 623.17 225.586 629.73L164.633 643.55L177.127 698.652C178.822 706.128 179.787 711.891 180.021 715.939C180.507 719.589 180.003 724.147 178.507 729.613C175.946 739.422 164.263 746.685 143.458 751.402C120.702 756.562 106.01 753.57 99.3822 742.426C96.1787 737.342 93.287 729.111 90.7072 717.733L29.345 447.103C27.6497 439.626 26.5592 434.063 26.0735 430.413C25.8391 426.365 26.4695 421.608 27.9645 416.142C30.5255 406.333 42.2087 399.069 63.0139 394.352L167.365 370.692C195.972 364.205 226.126 368.306 257.825 382.993C273.438 390.049 287.424 401.233 299.783 416.546ZM206.504 543.31C216.257 541.099 225.036 535.349 232.842 526.059C240.647 516.77 242.929 504.973 239.686 490.67C236.442 476.366 229.296 466.707 218.247 461.693C207.125 456.354 196.525 454.826 186.447 457.111L125.494 470.932L145.064 557.241L206.504 543.31Z"/>
</mask>
<path d="M299.783 416.546C312.141 431.859 320.716 450.08 325.507 471.211C330.298 492.341 330.421 512.479 325.875 531.625C321.256 550.446 313.425 566.406 302.381 579.505C280.117 606.428 254.519 623.17 225.586 629.73L164.633 643.55L177.127 698.652C178.822 706.128 179.787 711.891 180.021 715.939C180.507 719.589 180.003 724.147 178.507 729.613C175.946 739.422 164.263 746.685 143.458 751.402C120.702 756.562 106.01 753.57 99.3822 742.426C96.1787 737.342 93.287 729.111 90.7072 717.733L29.345 447.103C27.6497 439.626 26.5592 434.063 26.0735 430.413C25.8391 426.365 26.4695 421.608 27.9645 416.142C30.5255 406.333 42.2087 399.069 63.0139 394.352L167.365 370.692C195.972 364.205 226.126 368.306 257.825 382.993C273.438 390.049 287.424 401.233 299.783 416.546ZM206.504 543.31C216.257 541.099 225.036 535.349 232.842 526.059C240.647 516.77 242.929 504.973 239.686 490.67C236.442 476.366 229.296 466.707 218.247 461.693C207.125 456.354 196.525 454.826 186.447 457.111L125.494 470.932L145.064 557.241L206.504 543.31Z" fill="white"/>
<path d="M299.783 416.546L319.237 400.845L319.237 400.845L299.783 416.546ZM325.875 531.625L350.155 537.584L350.177 537.492L350.199 537.4L325.875 531.625ZM302.381 579.505L283.267 563.391L283.191 563.482L283.116 563.573L302.381 579.505ZM164.633 643.55L159.105 619.169L134.724 624.697L140.252 649.078L164.633 643.55ZM180.021 715.939L155.063 717.384L155.117 718.314L155.24 719.238L180.021 715.939ZM178.507 729.613L154.393 723.017L154.355 723.157L154.318 723.297L178.507 729.613ZM99.3822 742.426L120.869 729.646L120.705 729.371L120.534 729.099L99.3822 742.426ZM26.0735 430.413L1.11525 431.858L1.16908 432.788L1.29197 433.711L26.0735 430.413ZM27.9645 416.142L52.0787 422.737L52.117 422.597L52.1537 422.457L27.9645 416.142ZM257.825 382.993L247.315 405.677L247.422 405.726L247.53 405.775L257.825 382.993ZM232.842 526.059L213.702 509.976L213.702 509.976L232.842 526.059ZM218.247 461.693L207.428 484.231L207.671 484.347L207.916 484.458L218.247 461.693ZM125.494 470.932L119.966 446.551L95.585 452.079L101.113 476.46L125.494 470.932ZM145.064 557.241L120.683 562.769L126.211 587.15L150.592 581.622L145.064 557.241ZM280.328 432.247C290.055 444.299 297.093 458.95 301.126 476.739L349.888 465.683C344.34 441.211 334.227 419.418 319.237 400.845L280.328 432.247ZM301.126 476.739C305.16 494.528 305.129 510.781 301.552 525.85L350.199 537.4C355.713 514.177 355.437 490.154 349.888 465.683L301.126 476.739ZM301.596 525.666C297.773 541.242 291.523 553.599 283.267 563.391L321.495 595.619C335.327 579.212 344.739 559.649 350.155 537.584L301.596 525.666ZM283.116 563.573C263.722 587.024 242.688 600.218 220.058 605.349L231.114 654.111C266.349 646.122 296.512 625.832 321.647 595.437L283.116 563.573ZM220.058 605.349L159.105 619.169L170.162 667.931L231.114 654.111L220.058 605.349ZM140.252 649.078L152.746 704.18L201.508 693.123L189.015 638.022L140.252 649.078ZM152.746 704.18C154.354 711.273 154.95 715.431 155.063 717.384L204.98 714.495C204.624 708.352 203.29 700.984 201.508 693.123L152.746 704.18ZM155.24 719.238C155.16 718.637 155.241 718.607 155.159 719.344C155.079 720.063 154.873 721.263 154.393 723.017L202.622 736.208C204.572 729.08 205.901 720.894 204.803 712.641L155.24 719.238ZM154.318 723.297C155.161 720.07 157.005 719.706 154.625 721.185C152.077 722.77 146.943 724.978 137.93 727.021L148.986 775.784C160.778 773.11 171.889 769.327 181.024 763.649C190.326 757.865 199.293 748.965 202.697 735.928L154.318 723.297ZM137.93 727.021C128.286 729.208 122.84 729.036 120.361 728.531C119.304 728.316 119.246 728.132 119.68 728.419C120.189 728.757 120.633 729.251 120.869 729.646L77.8958 755.207C93.7408 781.846 124.988 781.225 148.986 775.784L137.93 727.021ZM120.534 729.099C119.67 727.729 117.516 722.913 115.088 712.205L66.3261 723.262C69.0578 735.309 72.6873 746.956 78.2309 755.754L120.534 729.099ZM115.088 712.205L53.7261 441.575L4.96384 452.631L66.3261 723.262L115.088 712.205ZM53.7261 441.575C52.0598 434.226 51.1832 429.581 50.855 427.115L1.29197 433.711C1.93516 438.544 3.2396 445.026 4.96384 452.631L53.7261 441.575ZM51.0317 428.968C51.0027 428.468 51.0374 426.545 52.0787 422.737L3.85027 409.546C1.90154 416.671 0.675547 424.262 1.11525 431.858L51.0317 428.968ZM52.1537 422.457C51.3111 425.684 49.4666 426.049 51.847 424.569C54.3953 422.985 59.5286 420.777 68.542 418.733L57.4858 369.971C45.6939 372.645 34.5831 376.427 25.4483 382.106C16.1455 387.889 7.17897 396.79 3.77535 409.826L52.1537 422.457ZM68.542 418.733L172.893 395.073L161.837 346.31L57.4858 369.971L68.542 418.733ZM172.893 395.073C195.138 390.029 219.637 392.853 247.315 405.677L268.335 360.31C232.614 343.759 196.806 338.382 161.837 346.31L172.893 395.073ZM247.53 405.775C259.082 410.996 270.06 419.525 280.328 432.247L319.237 400.845C304.788 382.941 287.794 369.102 268.12 360.211L247.53 405.775ZM212.032 567.691C228.164 564.034 241.434 554.694 251.982 542.142L213.702 509.976C208.638 516.003 204.349 518.164 200.976 518.929L212.032 567.691ZM251.982 542.142C265.888 525.593 268.635 505.29 264.067 485.142L215.304 496.198C217.222 504.657 215.407 507.947 213.702 509.976L251.982 542.142ZM264.067 485.142C259.498 464.993 248.263 447.861 228.579 438.928L207.916 484.458C210.33 485.554 213.387 487.739 215.304 496.198L264.067 485.142ZM229.066 439.155C213.882 431.866 197.511 428.968 180.919 432.73L191.975 481.493C195.539 480.685 200.368 480.841 207.428 484.231L229.066 439.155ZM180.919 432.73L119.966 446.551L131.022 495.313L191.975 481.493L180.919 432.73ZM101.113 476.46L120.683 562.769L169.445 551.713L149.875 465.404L101.113 476.46ZM150.592 581.622L212.032 567.691L200.976 518.929L139.536 532.86L150.592 581.622Z" fill="#D13834" mask="url(#path-4-outside-1_482_26)"/>
<mask id="path-6-outside-2_482_26" maskUnits="userSpaceOnUse" x="218.872" y="514.426" width="338.66" height="337.701" fill="black">
<rect fill="white" x="218.872" y="514.426" width="338.66" height="337.701"/>
<path d="M250.851 689.741C249.261 649.773 261.938 616.243 288.883 589.15C315.827 562.058 347.285 547.796 383.257 546.365C419.228 544.934 451.553 556.659 480.231 581.538C508.896 606.085 524.024 638.343 525.614 678.311C526.713 705.956 520.533 730.888 507.072 753.107C493.598 774.993 476.741 791.51 456.501 802.656C436.582 813.457 415.63 819.294 393.648 820.169C371.665 821.043 350.137 816.562 329.062 806.725C307.975 796.555 289.853 781.263 274.696 760.85C259.859 740.09 251.911 716.387 250.851 689.741ZM356.699 721.559C367.675 729.129 378.659 732.695 389.65 732.258C400.642 731.821 411.467 727.22 422.127 718.456C432.788 709.692 437.793 697.15 437.144 680.83C436.495 664.509 430.848 652.557 420.205 644.974C409.562 637.392 398.245 633.839 386.255 634.316C374.264 634.793 363.272 639.4 353.278 648.137C343.284 656.875 338.612 669.404 339.261 685.724C339.897 701.711 345.71 713.656 356.699 721.559Z"/>
</mask>
<path d="M250.851 689.741C249.261 649.773 261.938 616.243 288.883 589.15C315.827 562.058 347.285 547.796 383.257 546.365C419.228 544.934 451.553 556.659 480.231 581.538C508.896 606.085 524.024 638.343 525.614 678.311C526.713 705.956 520.533 730.888 507.072 753.107C493.598 774.993 476.741 791.51 456.501 802.656C436.582 813.457 415.63 819.294 393.648 820.169C371.665 821.043 350.137 816.562 329.062 806.725C307.975 796.555 289.853 781.263 274.696 760.85C259.859 740.09 251.911 716.387 250.851 689.741ZM356.699 721.559C367.675 729.129 378.659 732.695 389.65 732.258C400.642 731.821 411.467 727.22 422.127 718.456C432.788 709.692 437.793 697.15 437.144 680.83C436.495 664.509 430.848 652.557 420.205 644.974C409.562 637.392 398.245 633.839 386.255 634.316C374.264 634.793 363.272 639.4 353.278 648.137C343.284 656.875 338.612 669.404 339.261 685.724C339.897 701.711 345.71 713.656 356.699 721.559Z" fill="white"/>
<path d="M288.883 589.15L306.609 606.779L288.883 589.15ZM480.231 581.538L463.848 600.422L463.909 600.475L463.97 600.527L480.231 581.538ZM507.072 753.107L528.361 766.214L528.408 766.137L528.454 766.061L507.072 753.107ZM456.501 802.656L468.417 824.634L468.49 824.595L468.562 824.555L456.501 802.656ZM329.062 806.725L318.203 829.243L318.345 829.312L318.488 829.379L329.062 806.725ZM274.696 760.85L254.357 775.386L254.488 775.571L254.624 775.753L274.696 760.85ZM356.699 721.559L342.103 741.856L342.303 742L342.506 742.14L356.699 721.559ZM422.127 718.456L406.251 699.145L422.127 718.456ZM420.205 644.974L405.699 665.335L405.699 665.335L420.205 644.974ZM353.278 648.137L336.823 629.316L336.823 629.316L353.278 648.137ZM275.831 688.748C274.503 655.359 284.819 628.688 306.609 606.779L271.157 571.521C239.057 603.797 224.019 644.187 225.871 690.735L275.831 688.748ZM306.609 606.779C329.403 583.86 354.996 572.509 384.25 571.345L382.263 521.385C339.574 523.083 302.251 540.256 271.157 571.521L306.609 606.779ZM384.25 571.345C413.493 570.182 439.687 579.461 463.848 600.422L496.614 562.654C463.419 533.856 424.963 519.686 382.263 521.385L384.25 571.345ZM463.97 600.527C487.007 620.254 499.301 645.819 500.633 679.305L550.594 677.317C548.746 630.867 530.786 591.916 496.492 562.549L463.97 600.527ZM500.633 679.305C501.551 702.383 496.441 722.407 485.69 740.153L528.454 766.061C544.625 739.369 551.875 709.529 550.594 677.317L500.633 679.305ZM485.783 740.001C474.314 758.63 460.484 771.922 444.441 780.758L468.562 824.555C492.998 811.097 512.882 791.356 528.361 766.214L485.783 740.001ZM444.585 780.679C427.925 789.712 410.698 794.471 392.654 795.188L394.642 845.149C420.563 844.118 445.239 837.201 468.417 824.634L444.585 780.679ZM392.654 795.188C374.886 795.895 357.308 792.32 339.636 784.071L318.488 829.379C342.965 840.804 368.445 846.191 394.642 845.149L392.654 795.188ZM339.922 784.207C322.783 775.941 307.727 763.4 294.768 745.947L254.624 775.753C271.978 799.127 293.166 817.169 318.203 829.243L339.922 784.207ZM295.035 746.313C283.164 729.703 276.706 710.755 275.831 688.748L225.871 690.735C227.115 722.019 236.554 750.476 254.357 775.386L295.035 746.313ZM342.506 742.14C356.967 752.113 373.18 757.933 390.644 757.238L388.657 707.278C384.138 707.457 378.384 706.145 370.892 700.979L342.506 742.14ZM390.644 757.238C408.339 756.534 424.222 749.099 438.004 737.768L406.251 699.145C398.713 705.342 392.945 707.107 388.657 707.278L390.644 757.238ZM438.004 737.768C455.86 723.088 463.02 702.359 462.124 679.836L412.164 681.823C412.566 691.941 409.716 696.296 406.251 699.145L438.004 737.768ZM462.124 679.836C461.252 657.917 453.207 637.791 434.712 624.614L405.699 665.335C408.489 667.324 411.737 671.102 412.164 681.823L462.124 679.836ZM434.712 624.614C419.983 614.12 403.289 608.618 385.261 609.335L387.248 659.296C393.201 659.059 399.141 660.663 405.699 665.335L434.712 624.614ZM385.261 609.335C366.952 610.064 350.63 617.245 336.823 629.316L369.733 666.958C375.913 661.555 381.577 659.521 387.248 659.296L385.261 609.335ZM336.823 629.316C319.836 644.168 313.407 664.759 314.281 686.718L364.241 684.73C363.816 674.049 366.732 669.582 369.733 666.958L336.823 629.316ZM314.281 686.718C315.16 708.825 323.693 728.617 342.103 741.856L371.295 701.262C367.727 698.696 364.634 694.597 364.241 684.73L314.281 686.718Z" fill="#D13834" mask="url(#path-6-outside-2_482_26)"/>
<mask id="path-8-outside-3_482_26" maskUnits="userSpaceOnUse" x="860.872" y="403.426" width="338.66" height="337.701" fill="black">
<rect fill="white" x="860.872" y="403.426" width="338.66" height="337.701"/>
<path d="M892.851 578.741C891.261 538.773 903.938 505.243 930.883 478.15C957.827 451.058 989.285 436.796 1025.26 435.365C1061.23 433.934 1093.55 445.659 1122.23 470.538C1150.9 495.085 1166.02 527.343 1167.61 567.311C1168.71 594.956 1162.53 619.888 1149.07 642.107C1135.6 663.993 1118.74 680.51 1098.5 691.656C1078.58 702.457 1057.63 708.294 1035.65 709.169C1013.67 710.043 992.137 705.562 971.062 695.725C949.975 685.555 931.853 670.263 916.696 649.85C901.859 629.09 893.911 605.387 892.851 578.741ZM998.699 610.559C1009.68 618.129 1020.66 621.695 1031.65 621.258C1042.64 620.821 1053.47 616.22 1064.13 607.456C1074.79 598.692 1079.79 586.15 1079.14 569.83C1078.49 553.509 1072.85 541.557 1062.21 533.974C1051.56 526.392 1040.25 522.839 1028.25 523.316C1016.26 523.793 1005.27 528.4 995.278 537.137C985.284 545.875 980.612 558.404 981.261 574.724C981.897 590.711 987.71 602.656 998.699 610.559Z"/>
</mask>
<path d="M892.851 578.741C891.261 538.773 903.938 505.243 930.883 478.15C957.827 451.058 989.285 436.796 1025.26 435.365C1061.23 433.934 1093.55 445.659 1122.23 470.538C1150.9 495.085 1166.02 527.343 1167.61 567.311C1168.71 594.956 1162.53 619.888 1149.07 642.107C1135.6 663.993 1118.74 680.51 1098.5 691.656C1078.58 702.457 1057.63 708.294 1035.65 709.169C1013.67 710.043 992.137 705.562 971.062 695.725C949.975 685.555 931.853 670.263 916.696 649.85C901.859 629.09 893.911 605.387 892.851 578.741ZM998.699 610.559C1009.68 618.129 1020.66 621.695 1031.65 621.258C1042.64 620.821 1053.47 616.22 1064.13 607.456C1074.79 598.692 1079.79 586.15 1079.14 569.83C1078.49 553.509 1072.85 541.557 1062.21 533.974C1051.56 526.392 1040.25 522.839 1028.25 523.316C1016.26 523.793 1005.27 528.4 995.278 537.137C985.284 545.875 980.612 558.404 981.261 574.724C981.897 590.711 987.71 602.656 998.699 610.559Z" fill="white"/>
<path d="M930.883 478.15L948.609 495.779L930.883 478.15ZM1122.23 470.538L1105.85 489.422L1105.91 489.475L1105.97 489.527L1122.23 470.538ZM1149.07 642.107L1170.36 655.214L1170.41 655.137L1170.45 655.061L1149.07 642.107ZM1098.5 691.656L1110.42 713.634L1110.49 713.595L1110.56 713.555L1098.5 691.656ZM971.062 695.725L960.203 718.243L960.345 718.312L960.488 718.379L971.062 695.725ZM916.696 649.85L896.357 664.386L896.488 664.571L896.624 664.753L916.696 649.85ZM998.699 610.559L984.103 630.856L984.303 631L984.506 631.14L998.699 610.559ZM1064.13 607.456L1048.25 588.145L1064.13 607.456ZM1062.21 533.974L1047.7 554.335L1047.7 554.335L1062.21 533.974ZM995.278 537.137L978.823 518.316L978.823 518.316L995.278 537.137ZM917.831 577.748C916.503 544.359 926.819 517.688 948.609 495.779L913.157 460.521C881.057 492.797 866.019 533.187 867.871 579.735L917.831 577.748ZM948.609 495.779C971.403 472.86 996.996 461.509 1026.25 460.345L1024.26 410.385C981.574 412.083 944.251 429.256 913.157 460.521L948.609 495.779ZM1026.25 460.345C1055.49 459.182 1081.69 468.461 1105.85 489.422L1138.61 451.654C1105.42 422.856 1066.96 408.686 1024.26 410.385L1026.25 460.345ZM1105.97 489.527C1129.01 509.254 1141.3 534.819 1142.63 568.305L1192.59 566.317C1190.75 519.867 1172.79 480.916 1138.49 451.549L1105.97 489.527ZM1142.63 568.305C1143.55 591.383 1138.44 611.407 1127.69 629.153L1170.45 655.061C1186.62 628.369 1193.88 598.529 1192.59 566.317L1142.63 568.305ZM1127.78 629.001C1116.31 647.63 1102.48 660.922 1086.44 669.758L1110.56 713.555C1135 700.097 1154.88 680.356 1170.36 655.214L1127.78 629.001ZM1086.59 669.679C1069.92 678.712 1052.7 683.471 1034.65 684.188L1036.64 734.149C1062.56 733.118 1087.24 726.201 1110.42 713.634L1086.59 669.679ZM1034.65 684.188C1016.89 684.895 999.308 681.32 981.636 673.071L960.488 718.379C984.965 729.804 1010.44 735.191 1036.64 734.149L1034.65 684.188ZM981.922 673.207C964.783 664.941 949.727 652.4 936.768 634.947L896.624 664.753C913.978 688.127 935.166 706.169 960.203 718.243L981.922 673.207ZM937.035 635.313C925.164 618.703 918.706 599.755 917.831 577.748L867.871 579.735C869.115 611.019 878.554 639.476 896.357 664.386L937.035 635.313ZM984.506 631.14C998.967 641.113 1015.18 646.933 1032.64 646.238L1030.66 596.278C1026.14 596.457 1020.38 595.145 1012.89 589.979L984.506 631.14ZM1032.64 646.238C1050.34 645.534 1066.22 638.099 1080 626.768L1048.25 588.145C1040.71 594.342 1034.94 596.107 1030.66 596.278L1032.64 646.238ZM1080 626.768C1097.86 612.088 1105.02 591.359 1104.12 568.836L1054.16 570.823C1054.57 580.941 1051.72 585.296 1048.25 588.145L1080 626.768ZM1104.12 568.836C1103.25 546.917 1095.21 526.791 1076.71 513.614L1047.7 554.335C1050.49 556.324 1053.74 560.102 1054.16 570.823L1104.12 568.836ZM1076.71 513.614C1061.98 503.12 1045.29 497.618 1027.26 498.335L1029.25 548.296C1035.2 548.059 1041.14 549.663 1047.7 554.335L1076.71 513.614ZM1027.26 498.335C1008.95 499.064 992.63 506.245 978.823 518.316L1011.73 555.958C1017.91 550.555 1023.58 548.521 1029.25 548.296L1027.26 498.335ZM978.823 518.316C961.836 533.168 955.407 553.759 956.281 575.718L1006.24 573.73C1005.82 563.049 1008.73 558.582 1011.73 555.958L978.823 518.316ZM956.281 575.718C957.16 597.825 965.693 617.617 984.103 630.856L1013.29 590.262C1009.73 587.696 1006.63 583.597 1006.24 573.73L956.281 575.718Z" fill="#D13834" mask="url(#path-8-outside-3_482_26)"/>
<mask id="path-10-outside-4_482_26" maskUnits="userSpaceOnUse" x="495.015" y="505.237" width="462.401" height="351.833" fill="black">
<rect fill="white" x="495.015" y="505.237" width="462.401" height="351.833"/>
<path d="M610.993 594.638C624.474 569.662 642.17 556.187 664.082 554.214C697.945 551.165 724.476 563.335 743.676 590.724C746.88 585.415 750.732 579.881 755.234 574.12C760.038 567.998 767.8 561.275 778.519 553.951C789.209 546.295 800.53 541.929 812.481 540.853C839.041 538.461 862.211 546.75 881.991 565.72C901.742 584.357 913.74 617.247 917.985 664.39L925.831 751.537C926.519 759.173 926.71 765.012 926.404 769.056C926.401 772.738 925.296 777.188 923.088 782.407C919.58 791.76 907.201 797.392 885.954 799.305C865.039 801.189 851.839 797.692 846.354 788.814C843.581 784.044 841.699 779.862 840.706 776.27C840.015 772.316 839.326 766.521 838.639 758.885L830.792 671.738C828.192 642.855 816.6 629.34 796.016 631.193C784.397 632.239 776.773 636.775 773.144 644.799C769.848 652.793 768.827 663.763 770.083 677.706L777.929 764.854C778.647 772.821 778.838 778.661 778.503 782.373C778.5 786.055 777.394 790.505 775.187 795.724C771.346 805.106 758.802 810.754 737.554 812.667C716.639 814.55 703.439 811.053 697.954 802.176C695.182 797.405 693.299 793.224 692.306 789.632C691.616 785.678 690.927 779.883 690.239 772.247L682.393 685.099C679.792 656.216 668.2 642.701 647.617 644.555C627.697 646.348 619.038 661.686 621.638 690.57L629.574 778.713C630.262 786.349 630.453 792.189 630.148 796.232C630.145 799.914 629.039 804.364 626.832 809.583C622.629 818.663 610.07 824.145 589.155 826.028C568.239 827.911 555.054 824.58 549.599 816.035C546.827 811.265 544.944 807.083 543.951 803.491C543.291 799.869 542.602 794.074 541.884 786.106L526.102 610.815C525.414 603.18 525.072 597.521 525.075 593.839C525.38 589.795 526.652 585.33 528.889 580.443C533.062 571.031 544.444 565.488 563.036 563.814C581.627 562.14 594.014 564.037 600.196 569.505C606.377 574.972 609.977 583.35 610.993 594.638Z"/>
</mask>
<path d="M610.993 594.638C624.474 569.662 642.17 556.187 664.082 554.214C697.945 551.165 724.476 563.335 743.676 590.724C746.88 585.415 750.732 579.881 755.234 574.12C760.038 567.998 767.8 561.275 778.519 553.951C789.209 546.295 800.53 541.929 812.481 540.853C839.041 538.461 862.211 546.75 881.991 565.72C901.742 584.357 913.74 617.247 917.985 664.39L925.831 751.537C926.519 759.173 926.71 765.012 926.404 769.056C926.401 772.738 925.296 777.188 923.088 782.407C919.58 791.76 907.201 797.392 885.954 799.305C865.039 801.189 851.839 797.692 846.354 788.814C843.581 784.044 841.699 779.862 840.706 776.27C840.015 772.316 839.326 766.521 838.639 758.885L830.792 671.738C828.192 642.855 816.6 629.34 796.016 631.193C784.397 632.239 776.773 636.775 773.144 644.799C769.848 652.793 768.827 663.763 770.083 677.706L777.929 764.854C778.647 772.821 778.838 778.661 778.503 782.373C778.5 786.055 777.394 790.505 775.187 795.724C771.346 805.106 758.802 810.754 737.554 812.667C716.639 814.55 703.439 811.053 697.954 802.176C695.182 797.405 693.299 793.224 692.306 789.632C691.616 785.678 690.927 779.883 690.239 772.247L682.393 685.099C679.792 656.216 668.2 642.701 647.617 644.555C627.697 646.348 619.038 661.686 621.638 690.57L629.574 778.713C630.262 786.349 630.453 792.189 630.148 796.232C630.145 799.914 629.039 804.364 626.832 809.583C622.629 818.663 610.07 824.145 589.155 826.028C568.239 827.911 555.054 824.58 549.599 816.035C546.827 811.265 544.944 807.083 543.951 803.491C543.291 799.869 542.602 794.074 541.884 786.106L526.102 610.815C525.414 603.18 525.072 597.521 525.075 593.839C525.38 589.795 526.652 585.33 528.889 580.443C533.062 571.031 544.444 565.488 563.036 563.814C581.627 562.14 594.014 564.037 600.196 569.505C606.377 574.972 609.977 583.35 610.993 594.638Z" fill="white"/>
<path d="M610.993 594.638L586.094 596.88L593.542 679.602L632.993 606.512L610.993 594.638ZM743.676 590.724L723.205 605.074L745.244 636.512L765.081 603.64L743.676 590.724ZM755.234 574.12L735.566 558.688L735.551 558.707L735.536 558.726L755.234 574.12ZM778.519 553.951L792.623 574.593L792.851 574.437L793.076 574.276L778.519 553.951ZM881.991 565.72L864.688 583.764L864.761 583.833L864.834 583.902L881.991 565.72ZM926.404 769.056L901.475 767.174L901.405 768.103L901.404 769.035L926.404 769.056ZM923.088 782.407L900.063 772.668L899.863 773.143L899.681 773.626L923.088 782.407ZM846.354 788.814L824.738 801.375L824.908 801.667L825.086 801.955L846.354 788.814ZM840.706 776.27L816.079 780.572L816.287 781.764L816.609 782.93L840.706 776.27ZM773.144 644.799L750.365 634.499L750.192 634.881L750.032 635.269L773.144 644.799ZM778.503 782.373L753.604 780.124L753.504 781.236L753.503 782.351L778.503 782.373ZM775.187 795.724L752.162 785.985L752.105 786.118L752.05 786.253L775.187 795.724ZM697.954 802.176L676.339 814.737L676.508 815.029L676.686 815.316L697.954 802.176ZM692.306 789.632L667.679 793.933L667.887 795.125L668.21 796.291L692.306 789.632ZM630.148 796.232L605.219 794.35L605.149 795.279L605.148 796.211L630.148 796.232ZM626.832 809.583L649.519 820.084L649.694 819.706L649.857 819.323L626.832 809.583ZM549.599 816.035L527.984 828.596L528.246 829.047L528.527 829.487L549.599 816.035ZM543.951 803.491L519.357 807.978L519.558 809.076L519.855 810.151L543.951 803.491ZM525.075 593.839L500.146 591.957L500.076 592.886L500.075 593.817L525.075 593.839ZM528.889 580.443L551.62 590.85L551.683 590.713L551.744 590.576L528.889 580.443ZM600.196 569.505L583.633 588.231L583.633 588.231L600.196 569.505ZM632.993 606.512C643.788 586.513 655.163 580.118 666.324 579.113L661.84 529.315C629.177 532.256 605.161 552.81 588.993 582.763L632.993 606.512ZM666.324 579.113C691.456 576.851 709.247 585.162 723.205 605.074L764.147 576.373C739.706 541.508 704.434 525.48 661.84 529.315L666.324 579.113ZM765.081 603.64C767.684 599.327 770.943 594.62 774.932 589.514L735.536 558.726C730.522 565.142 726.076 571.503 722.272 577.807L765.081 603.64ZM774.902 589.553C777.425 586.338 782.803 581.302 792.623 574.593L764.416 533.309C752.796 541.248 742.651 549.659 735.566 558.688L774.902 589.553ZM793.076 574.276C800.499 568.959 807.629 566.391 814.723 565.752L810.24 515.953C793.43 517.467 777.919 523.631 763.962 533.626L793.076 574.276ZM814.723 565.752C833.857 564.029 849.959 569.639 864.688 583.764L899.295 547.676C874.462 523.862 844.224 512.894 810.24 515.953L814.723 565.752ZM864.834 583.902C877.854 596.188 889.018 621.453 893.085 666.631L942.884 662.148C938.462 613.04 925.631 572.525 899.149 547.537L864.834 583.902ZM893.085 666.631L900.932 753.779L950.73 749.295L942.884 662.148L893.085 666.631ZM900.932 753.779C901.584 761.023 901.623 765.223 901.475 767.174L951.333 770.938C951.797 764.802 951.453 757.322 950.73 749.295L900.932 753.779ZM901.404 769.035C901.405 768.428 901.489 768.41 901.31 769.129C901.136 769.832 900.772 770.994 900.063 772.668L946.113 792.147C948.992 785.34 951.397 777.403 951.404 769.078L901.404 769.035ZM899.681 773.626C900.994 770.126 903.212 769.802 900.818 770.891C898.224 772.072 892.939 773.575 883.712 774.406L888.196 824.205C900.217 823.122 911.744 820.853 921.528 816.401C931.513 811.857 941.674 804.041 946.495 791.189L899.681 773.626ZM883.712 774.406C874.766 775.212 869.462 774.642 866.77 773.929C864.385 773.297 866.066 773.155 867.622 775.674L825.086 801.955C832.127 813.35 843.15 819.396 853.965 822.261C864.473 825.045 876.227 825.282 888.196 824.205L883.712 774.406ZM867.969 776.253C865.81 772.538 865.022 770.406 864.803 769.61L816.609 782.93C818.375 789.319 821.353 795.549 824.738 801.375L867.969 776.253ZM865.333 771.968C864.825 769.058 864.208 764.089 863.538 756.644L813.74 761.127C814.444 768.954 815.206 775.575 816.079 780.572L865.333 771.968ZM863.538 756.644L855.692 669.496L805.893 673.98L813.74 761.127L863.538 756.644ZM855.692 669.496C854.193 652.851 849.837 636.153 839.124 623.663C827.165 609.721 810.633 604.776 793.774 606.294L798.258 656.092C799.381 655.991 800.149 656.022 800.618 656.073C800.851 656.098 801.011 656.128 801.108 656.15C801.205 656.172 801.248 656.188 801.249 656.189C801.25 656.189 801.223 656.179 801.179 656.156C801.136 656.134 801.093 656.108 801.058 656.083C800.974 656.024 801.017 656.034 801.172 656.215C802.051 657.241 804.791 661.742 805.893 673.98L855.692 669.496ZM793.774 606.294C776.518 607.848 758.908 615.604 750.365 634.499L795.924 655.099C795.826 655.316 795.607 655.701 795.235 656.117C794.864 656.531 794.523 656.771 794.365 656.865C794.117 657.013 795.048 656.381 798.258 656.092L793.774 606.294ZM750.032 635.269C744.533 648.605 743.766 664.205 745.184 679.948L794.982 675.464C793.889 663.32 795.163 656.982 796.257 654.329L750.032 635.269ZM745.184 679.948L753.03 767.095L802.829 762.612L794.982 675.464L745.184 679.948ZM753.03 767.095C753.729 774.864 753.723 778.802 753.604 780.124L803.401 784.621C803.952 778.521 803.564 770.779 802.829 762.612L753.03 767.095ZM753.503 782.351C753.503 781.745 753.587 781.727 753.408 782.446C753.234 783.148 752.87 784.31 752.162 785.985L798.212 805.463C801.091 798.656 803.495 790.72 803.503 782.394L753.503 782.351ZM752.05 786.253C753.314 783.166 755.19 783.05 752.635 784.2C749.898 785.432 744.517 786.939 735.312 787.768L739.796 837.566C751.839 836.482 763.353 834.208 773.161 829.792C783.15 825.296 793.219 817.664 798.323 805.195L752.05 786.253ZM735.312 787.768C726.366 788.573 721.062 788.003 718.37 787.29C715.985 786.658 717.666 786.517 719.222 789.035L676.686 815.316C683.727 826.712 694.75 832.758 705.565 835.623C716.074 838.407 727.827 838.644 739.796 837.566L735.312 787.768ZM719.569 789.615C717.41 785.9 716.623 783.767 716.403 782.972L668.21 796.291C669.975 802.68 672.953 808.91 676.339 814.737L719.569 789.615ZM716.933 785.33C716.425 782.419 715.809 777.45 715.138 770.005L665.34 774.489C666.044 782.315 666.806 788.936 667.679 793.933L716.933 785.33ZM715.138 770.005L707.292 682.858L657.493 687.341L665.34 774.489L715.138 770.005ZM707.292 682.858C705.793 666.212 701.437 649.515 690.724 637.025C678.765 623.082 662.234 618.137 645.375 619.655L649.858 669.454C650.982 669.353 651.749 669.383 652.218 669.434C652.451 669.46 652.611 669.49 652.709 669.512C652.805 669.534 652.849 669.55 652.85 669.55C652.85 669.55 652.823 669.54 652.78 669.518C652.736 669.495 652.693 669.469 652.658 669.444C652.574 669.386 652.617 669.396 652.772 669.577C653.651 670.602 656.391 675.104 657.493 687.341L707.292 682.858ZM645.375 619.655C628.517 621.173 613.38 629.229 604.412 645.113C596.447 659.221 595.251 676.279 596.739 692.811L646.538 688.328C645.426 675.977 647.258 670.924 647.953 669.694C648.115 669.407 647.999 669.668 647.642 669.882C647.399 670.028 647.889 669.631 649.858 669.454L645.375 619.655ZM596.739 692.811L604.675 780.955L654.474 776.471L646.538 688.328L596.739 692.811ZM604.675 780.955C605.327 788.199 605.366 792.399 605.219 794.35L655.077 798.114C655.54 791.978 655.197 784.498 654.474 776.471L604.675 780.955ZM605.148 796.211C605.148 795.604 605.232 795.586 605.054 796.305C604.879 797.008 604.515 798.17 603.807 799.844L649.857 819.323C652.736 812.516 655.141 804.579 655.148 796.254L605.148 796.211ZM604.144 799.082C605.428 796.309 607.017 796.389 604.26 797.592C601.387 798.846 595.962 800.314 586.913 801.129L591.396 850.928C603.263 849.859 614.574 847.645 624.261 843.417C634.063 839.139 644.033 831.938 649.519 820.084L604.144 799.082ZM586.913 801.129C577.904 801.94 572.499 801.41 569.703 800.704C567.131 800.054 568.939 799.869 570.672 802.583L528.527 829.487C535.714 840.746 546.842 846.499 557.456 849.181C567.845 851.806 579.489 852 591.396 850.928L586.913 801.129ZM571.214 803.474C569.056 799.759 568.268 797.627 568.048 796.831L519.855 810.151C521.621 816.54 524.598 822.77 527.984 828.596L571.214 803.474ZM568.546 799.004C568.102 796.574 567.493 791.74 566.783 783.865L516.985 788.348C517.711 796.408 518.479 803.164 519.357 807.978L568.546 799.004ZM566.783 783.865L551.001 608.574L501.202 613.057L516.985 788.348L566.783 783.865ZM551.001 608.574C550.325 601.068 550.073 596.349 550.075 593.861L500.075 593.817C500.071 598.693 500.503 605.291 501.202 613.057L551.001 608.574ZM550.004 595.721C550.027 595.413 550.236 593.872 551.62 590.85L506.158 570.036C503.067 576.788 500.733 584.178 500.146 591.957L550.004 595.721ZM551.744 590.576C550.928 592.416 549.85 592.507 551.501 591.703C553.492 590.734 557.704 589.395 565.277 588.713L560.794 538.915C540.544 540.738 516.138 547.521 506.035 570.311L551.744 590.576ZM565.277 588.713C573.441 587.978 579 588.16 582.485 588.693C586.222 589.265 585.549 589.926 583.633 588.231L616.758 550.778C608.66 543.615 598.703 540.594 590.053 539.269C581.152 537.906 571.221 537.976 560.794 538.915L565.277 588.713ZM583.633 588.231C583.682 588.275 584.064 588.598 584.561 589.757C585.102 591.015 585.767 593.252 586.094 596.88L635.892 592.396C634.52 577.155 629.267 561.842 616.758 550.778L583.633 588.231Z" fill="#D13834" mask="url(#path-10-outside-4_482_26)"/>
</svg>
