<svg width="1100" height="200" viewBox="0 0 1100 200" fill="none" xmlns="http://www.w3.org/2000/svg">
<path d="M31.9633 96.0066C32.0802 96.0675 32.1979 96.127 32.3164 96.185C38.0423 98.9895 44.237 100.024 50.3022 100.024C56.2393 100.024 62.3805 98.9695 68.038 96.0333C72.9484 93.5144 77.2307 89.9906 80.5668 85.4255C83.3829 81.6483 85.5489 77.4975 87.0522 73.0378C88.4183 69.1518 89.38 65.1762 89.8969 61.1252C90.3972 57.5865 90.6822 54.1322 90.6822 50.812C90.6822 47.6677 90.436 44.3497 90.0067 40.9154C89.496 36.8302 88.5329 32.8214 87.1587 28.9036C85.6748 24.4272 83.5297 20.2497 80.711 16.4526C77.3803 11.8094 73.0767 8.22501 68.1441 5.64605C62.4132 2.61503 56.1771 1.508 50.1182 1.508C43.9005 1.508 37.5546 2.65892 31.7283 5.73598C26.7131 8.35744 22.3923 12.0085 19.0358 16.6786C16.2061 20.5598 14.0423 24.8149 12.5525 29.3776C12.5315 29.4421 12.5108 29.5068 12.4906 29.5716C11.3076 33.3572 10.4529 37.189 9.95901 41.0579C9.53032 44.416 9.2782 47.6618 9.2782 50.72C9.2782 53.9528 9.51929 57.3448 9.94882 60.8527L9.95376 60.8926C10.4583 64.9288 11.376 68.9018 12.6753 72.7996C12.7067 72.8939 12.739 72.9879 12.7722 73.0816C14.3455 77.5239 16.5484 81.6629 19.3782 85.436C22.7708 89.9594 27.0735 93.4599 31.9633 96.0066Z" fill="#D13834"/>
<path d="M138.645 92.4857C144.478 98.3191 152.088 99.012 156.398 99.012C160.66 99.012 168.367 98.3625 174.244 92.4857C180.077 86.6523 180.77 79.0419 180.77 74.732V26.892C180.77 22.6743 180.134 15.082 174.424 9.22898C168.616 3.20792 160.937 2.428 156.49 2.428C154.847 2.428 152.691 2.52458 150.326 2.98023C149.185 3.1999 147.996 3.50302 146.792 3.919C144.385 4.78252 142.306 5.99708 140.591 7.23928C140.531 7.28246 140.472 7.32566 140.413 7.36889C139.532 8.01728 138.751 8.66983 138.074 9.28132L126.443 19.7218C122.919 22.8265 117.779 28.4769 117.248 36.7179C116.715 44.9792 121.003 51.1673 124.425 54.7962L124.415 54.7858C126.097 56.5732 128.677 58.9647 132.118 60.7139V74.64C132.118 78.9017 132.768 86.6089 138.645 92.4857Z" fill="#D13834"/>
<path d="M210.251 66.6293C210.169 66.9106 210.094 67.194 210.027 67.4794C209.475 69.8231 209.233 72.164 209.233 74.456C209.233 81.0973 211.831 87.0119 216.2 91.5422C220.698 96.2073 226.749 99.012 233.605 99.012H266.817C269.147 99.012 271.493 98.81 273.829 98.3671C279.425 97.3221 284.093 94.169 287.205 89.6859C290.923 84.3623 291.373 78.3197 291.373 74.64C291.373 71.2945 291.084 65.1465 287.488 59.782C286.989 59.0277 286.439 58.2971 285.839 57.5986C286.087 57.0469 286.324 56.4894 286.549 55.9263C288.383 51.3414 289.165 46.5593 289.165 41.796C289.165 37.3102 288.489 32.9176 287.071 28.72C286.227 26.2201 285.121 23.7894 283.737 21.4494L283.766 21.4981C280.277 15.5159 275.475 10.6388 269.51 7.08857C263.27 3.31152 256.352 1.508 249.153 1.508C243.369 1.508 237.608 2.60896 232.211 5.19494C228.046 7.19088 224.278 9.82957 221.021 13.1181C220.573 13.5709 220.134 14.0359 219.705 14.5133C216.349 18.1902 213.719 22.3878 211.897 27.0416C211.861 27.1359 211.825 27.2306 211.789 27.3256C210.134 31.8043 209.233 36.4997 209.233 41.336C209.233 43.6608 209.445 45.968 209.859 48.2462C209.863 48.2682 209.867 48.2901 209.871 48.312C209.876 48.3339 209.88 48.3559 209.884 48.3778C210.587 52.0719 212.195 55.2463 214.347 57.8347C213.684 58.8283 213.088 59.8545 212.555 60.9063C211.591 62.7539 210.827 64.6701 210.251 66.6293Z" fill="#D13834"/>
<path d="M322.08 89.8698C322.196 89.9702 322.313 90.0689 322.432 90.1658C326.171 93.2162 330.342 95.5703 334.84 97.2573C339.675 99.0703 344.715 99.932 349.842 99.932C356.791 99.932 363.596 98.537 369.879 95.3438C375.895 92.2865 381.022 87.9112 384.814 82.169L384.889 82.0543C388.838 75.9616 390.682 69.123 390.682 62.036C390.682 58.5636 390.124 54.8576 388.621 51.2195C388.271 50.3131 387.877 49.4131 387.437 48.5252C388.888 44.8419 389.394 41.0995 389.394 37.656C389.394 32.9597 388.351 28.496 386.544 24.376C384.667 19.8881 381.902 15.9987 378.526 12.7085C374.919 9.13382 370.69 6.49132 366.168 4.60029C360.917 2.37713 355.35 1.508 349.842 1.508C345.318 1.508 340.67 2.04381 336.227 3.52507C332.587 4.73813 328.883 6.50124 325.565 9.11764C323.309 10.8474 321.078 12.8927 319.16 15.3217C317.916 16.8972 316.393 19.0172 315.259 21.4751L315.31 21.4986C315.141 21.8089 315.027 22.0449 314.988 22.1239C314.93 22.245 314.89 22.3321 314.875 22.3642C314.841 22.4394 314.871 22.378 315.001 22.0646C312.954 26.1677 310.988 32.1016 312.37 38.7817C313.089 42.2551 314.585 45.1089 316.371 47.4289C311.625 51.5638 309.278 57.3642 309.278 63.324C309.278 68.6791 310.581 73.7751 312.97 78.438C312.994 78.4859 313.019 78.5337 313.044 78.5813C315.337 82.9491 318.422 86.7065 322.08 89.8698Z" fill="#D13834"/>
<path d="M448.845 94.4209C448.995 94.5316 449.147 94.6396 449.301 94.7449C454.665 98.4152 460.819 98.736 464.224 98.736C467.602 98.736 473.838 98.4405 479.239 94.7449C483.483 91.8409 486.761 87.4241 487.946 81.8556C488.518 79.3632 488.78 76.8541 488.78 74.364V26.8C488.78 24.4601 488.576 22.1044 488.129 19.7582C487.045 14.0643 483.789 9.53875 479.527 6.55463C474.114 2.69946 467.881 2.336 464.408 2.336C461.367 2.336 456.453 2.59289 451.749 4.90636C450.149 4.19837 448.561 3.66513 447.055 3.25818C446.908 3.21864 446.761 3.18117 446.614 3.1458C442.736 2.21504 436.063 1.09514 429.536 3.96695C424.632 6.12481 421.72 9.82144 420.09 12.6526C418.475 15.4585 417.534 18.3994 416.933 20.9216L409.919 49.2494C409.648 50.2481 409.435 51.273 409.285 52.3213C409.178 53.0708 409.124 53.8269 409.124 54.584V54.5865V54.589V54.5916V54.5941V54.5966V54.5991V54.6017V54.6042V54.6068V54.6093V54.6118V54.6144V54.6169V54.6195V54.622V54.6246V54.6272V54.6297V54.6323V54.6349V54.6374V54.64V54.6426V54.6452V54.6478V54.6504V54.6529V54.6555V54.6581V54.6607V54.6633V54.6659V54.6685V54.6712V54.6738V54.6764V54.679V54.6816V54.6842V54.6869V54.6895V54.6921V54.6948V54.6974V54.7V54.7027V54.7053V54.708V54.7106V54.7133V54.7159V54.7186V54.7213V54.7239V54.7266V54.7293V54.732V54.7346V54.7373V54.74V54.7427V54.7454V54.7481V54.7507V54.7534V54.7561V54.7588V54.7616V54.7643V54.767V54.7697V54.7724V54.7751V54.7778V54.7806V54.7833V54.786V54.7888V54.7915V54.7942V54.797V54.7997V54.8025V54.8052V54.808V54.8107V54.8135V54.8162V54.819V54.8218V54.8245V54.8273V54.8301V54.8329V54.8357V54.8384V54.8412V54.844V54.8468V54.8496V54.8524V54.8552V54.858V54.8608V54.8636V54.8664V54.8692V54.8721V54.8749V54.8777V54.8805V54.8834V54.8862V54.889V54.8919V54.8947V54.8975V54.9004V54.9032V54.9061V54.9089V54.9118V54.9147V54.9175V54.9204V54.9233V54.9261V54.929V54.9319V54.9348V54.9376V54.9405V54.9434V54.9463V54.9492V54.9521V54.955V54.9579V54.9608V54.9637V54.9666V54.9695V54.9724V54.9754V54.9783V54.9812V54.9841V54.9871V54.99V54.9929V54.9959V54.9988V55.0018V55.0047V55.0076V55.0106V55.0136V55.0165V55.0195V55.0224V55.0254V55.0284V55.0313V55.0343V55.0373V55.0403V55.0433V55.0462V55.0492V55.0522V55.0552V55.0582V55.0612V55.0642V55.0672V55.0702V55.0732V55.0763V55.0793V55.0823V55.0853V55.0883V55.0914V55.0944V55.0974V55.1005V55.1035V55.1066V55.1096V55.1126V55.1157V55.1187V55.1218V55.1249V55.1279V55.131V55.1341V55.1371V55.1402V55.1433V55.1464V55.1494V55.1525V55.1556V55.1587V55.1618V55.1649V55.168V55.1711V55.1742V55.1773V55.1804V55.1835V55.1866V55.1897V55.1929V55.196V55.1991V55.2022V55.2054V55.2085V55.2117V55.2148V55.2179V55.2211V55.2242V55.2274V55.2305V55.2337V55.2369V55.24V55.2432V55.2464V55.2495V55.2527V55.2559V55.2591V55.2622V55.2654V55.2686V55.2718V55.275V55.2782V55.2814V55.2846V55.2878V55.291V55.2942V55.2974V55.3006V55.3039V55.3071V55.3103V55.3135V55.3168V55.32V55.3232V55.3265V55.3297V55.333V55.3362V55.3395V55.3427V55.346V55.3492V55.3525V55.3557V55.359V55.3623V55.3656V55.3688V55.3721V55.3754V55.3787V55.382V55.3852V55.3885V55.3918V55.3951V55.3984V55.4017V55.405V55.4084V55.4117V55.415V55.4183V55.4216V55.4249V55.4283V55.4316V55.4349V55.4383V55.4416V55.4449V55.4483V55.4516V55.455V55.4583V55.4617V55.465V55.4684V55.4718V55.4751V55.4785V55.4819V55.4852V55.4886V55.492V55.4954V55.4987V55.5021V55.5055V55.5089V55.5123V55.5157V55.5191V55.5225V55.5259V55.5293V55.5327V55.5362V55.5396V55.543V55.5464V55.5499V55.5533V55.5567V55.5602V55.5636V55.567V55.5705V55.5739V55.5774V55.5808V55.5843V55.5877V55.5912V55.5947V55.5981V55.6016V55.6051V55.6085V55.612V55.6155V55.619V55.6225V55.626V55.6294V55.6329V55.6364V55.6399V55.6434V55.6469V55.6505V55.654V55.6575V55.661V55.6645V55.668V55.6716V55.6751V55.6786V55.6821V55.6857V55.6892V55.6928V55.6963V55.6999V55.7034V55.707V55.7105V55.7141V55.7176V55.7212V55.7248V55.7283V55.7319V55.7355V55.7391V55.7426V55.7462V55.7498V55.7534V55.757V55.7606V55.7642V55.7678V55.7714V55.775V55.7786V55.7822V55.7858V55.7895V55.7931V55.7967V55.8003V55.804V55.8076V55.8112V55.8149V55.8185V55.8221V55.8258V55.8294V55.8331V55.8367V55.8404V55.8441V55.8477V55.8514V55.8551V55.8587V55.8624V55.8661V55.8698V55.8734V55.8771V55.8808V55.8845V55.8882V55.8919V55.8956V55.8993V55.903V55.9067V55.9104V55.9141V55.9178V55.9216V55.9253V55.929V55.9327V55.9365V55.9402V55.9439V55.9477V55.9514V55.9552V55.9589V55.9627V55.9664V55.9702V55.9739V55.9777V55.9814V55.9852V55.989V55.9927V55.9965V56.0003V56.0041V56.0079V56.0117V56.0154V56.0192V56.023V56.0268V56.0306V56.0344V56.0382V56.042V56.0459V56.0497V56.0535V56.0573V56.0611V56.065V56.0688V56.0726V56.0764V56.0803V56.0841V56.088V56.0918V56.0957V56.0995V56.1034V56.1072V56.1111V56.1149V56.1188V56.1227V56.1265V56.1304V56.1343V56.1382V56.142V56.1459V56.1498V56.1537V56.1576V56.1615V56.1654V56.1693V56.1732V56.1771V56.181V56.1849V56.1888V56.1928V56.1967V56.2006V56.2045V56.2085V56.2124V56.2163V56.2203V56.2242V56.2282V56.2321V56.236V56.24C409.124 58.5648 409.336 60.872 409.75 63.1502C409.758 63.1941 409.766 63.2379 409.775 63.2818C410.856 68.9581 414.07 73.4073 418.117 76.3889C418.267 76.4996 418.419 76.6076 418.573 76.7129C423.937 80.3832 430.091 80.704 433.496 80.704H440.394C440.421 80.8635 440.449 81.0229 440.478 81.1822C440.486 81.2261 440.494 81.2699 440.503 81.3138C441.584 86.9901 444.798 91.4393 448.845 94.4209Z" fill="#D13834"/>
<path d="M527.717 94.6245C527.798 94.6717 527.879 94.7183 527.961 94.7641C530.832 96.3719 533.898 97.5248 536.93 98.3784C540.908 99.5662 545.007 100.024 549.026 100.024C555.93 100.024 562.618 98.3369 568.666 94.7079C574.404 91.2652 579.015 86.5393 582.33 80.7382C585.791 74.6821 587.382 68.0411 587.382 61.208C587.382 56.026 586.273 50.996 584.059 46.2914C583.398 44.8451 582.654 43.4529 581.83 42.1166C581.949 41.9491 582.066 41.7799 582.18 41.609C585.724 36.3522 586.094 30.4253 586.094 26.984C586.094 23.6136 585.793 17.3252 582.014 11.8775C579.145 7.62424 574.654 4.14947 568.751 3.00186C566.406 2.53757 564.062 2.33832 561.762 2.33602L540.724 2.24415L540.654 2.244C536.462 2.244 530.112 3.05173 524.782 7.68653C521.45 10.5351 518.805 14.3452 517.514 19.0066C517.028 20.7188 516.585 22.5917 516.331 24.5014L516.325 24.549L512.921 50.677C512.831 51.3624 512.786 52.0528 512.786 52.744C512.786 55.8247 513.49 58.6563 514.672 61.1529C514.64 61.2112 514.608 61.2698 514.576 61.3285C512.921 64.3194 511.774 67.9256 511.774 71.972C511.774 76.462 513.151 80.835 515.884 84.5618C516.123 84.8882 516.375 85.2054 516.638 85.5127C517.926 87.0148 519.319 88.3992 520.792 89.675L521.56 90.3879L521.563 90.3905C521.902 90.7014 522.254 90.9975 522.619 91.278C524.199 92.4934 525.999 93.6228 527.717 94.6245Z" fill="#D13834"/>
<path d="M629.584 94.372C629.678 94.4307 629.772 94.4884 629.867 94.5451C636.277 98.3684 643.397 99.932 650.576 99.932C657.168 99.932 663.591 98.4293 669.478 95.1585L669.517 95.1371L669.564 95.1104C675.217 91.9244 679.904 87.5015 683.338 81.9216C686.929 76.0862 688.656 69.6009 688.656 62.864C688.656 56.1652 686.678 49.8776 682.937 44.3833C682.618 43.9142 682.289 43.4544 681.952 43.0039C682.203 42.6842 682.446 42.3578 682.679 42.0253C686.543 36.6094 686.908 30.3686 686.908 26.892C686.908 23.5138 686.612 17.2782 682.917 11.877C680.091 7.74676 675.675 4.279 669.814 3.10671C667.476 2.63929 665.133 2.428 662.812 2.428C657.016 2.428 651.337 3.27137 645.884 5.08907L645.838 5.10438L645.807 5.11494C640.566 6.89168 635.711 9.46392 631.332 12.8398C631.298 12.8654 631.266 12.8911 631.233 12.9169L631.203 12.9402C626.847 16.3694 623.177 20.4811 620.181 25.1527C620.174 25.1634 620.167 25.174 620.16 25.1847C620.153 25.196 620.145 25.2074 620.138 25.2188C617.193 29.8607 615.021 34.9221 613.536 40.2859C612.002 45.8264 611.3 51.6033 611.3 57.528C611.3 64.7537 612.516 71.8656 615.532 78.4009C615.574 78.4913 615.617 78.5813 615.66 78.6709C618.769 85.0904 623.397 90.5056 629.584 94.372Z" fill="#D13834"/>
<path d="M719.97 82.6282C720.04 82.9593 720.12 83.2882 720.211 83.6143C721.878 89.6155 725.953 93.7353 730.383 96.0667C735.241 98.6236 740.619 98.828 743.723 98.828C746.813 98.828 752.063 98.6109 756.861 96.124C761.222 93.8893 765.644 89.7177 767.238 83.2638C767.923 80.6632 768.187 78.09 768.187 75.652C768.187 75.501 768.214 74.9514 768.63 73.8985C768.637 73.8792 768.645 73.86 768.653 73.8407C768.661 73.8213 768.669 73.8018 768.676 73.7824C769.407 71.8894 770.379 69.8325 771.636 67.6089C773.058 65.0935 774.598 62.5612 776.261 60.0123C776.289 59.9685 776.317 59.9246 776.346 59.8806C778.303 56.8135 780.144 53.7906 781.865 50.8124L781.94 50.6809C783.847 47.3073 785.498 43.9129 786.846 40.5025C786.853 40.4839 786.861 40.4654 786.868 40.4468C786.876 40.4267 786.884 40.4066 786.892 40.3864C788.5 36.2231 789.531 31.7134 789.531 26.984C789.531 24.644 789.327 22.2884 788.88 19.9422C787.809 14.318 784.619 9.83359 780.434 6.84876C774.91 2.79664 768.425 2.51999 765.159 2.51999H734.339C732.028 2.51999 729.719 2.74071 727.429 3.19871C727.376 3.20927 727.323 3.2201 727.271 3.2312C721.339 4.47996 717.081 8.07662 714.418 11.9691C710.748 17.3332 710.427 23.4865 710.427 26.892C710.427 30.2975 710.748 36.4507 714.418 41.8149C714.523 41.9689 714.631 42.121 714.742 42.2712C717.294 45.7348 720.883 48.5719 725.373 50.0533C725.234 50.3384 725.096 50.6247 724.959 50.9123C724.916 51.0022 724.874 51.0925 724.833 51.1831C723.238 54.6919 721.936 58.3303 720.919 62.0854C720.892 62.1858 720.866 62.2865 720.841 62.3874C719.771 66.6636 719.259 71.0371 719.259 75.468C719.259 77.7897 719.459 80.2021 719.97 82.6282Z" fill="#D13834"/>
<path d="M1027.61 34.7331C1027.52 34.9234 1027.43 35.1155 1027.35 35.3093C1025.58 39.4447 1025.23 43.6925 1025.23 46.948C1025.23 50.3346 1025.65 55.537 1028.39 60.4106C1028.08 60.9447 1027.79 61.4939 1027.52 62.0571C1027.43 62.2474 1027.34 62.4395 1027.26 62.6333C1025.49 66.7687 1025.14 71.0165 1025.14 74.272C1025.14 78.7575 1025.88 86.4282 1031.75 92.3017C1031.84 92.3894 1031.93 92.4761 1032.02 92.5617C1037.9 98.1712 1045.42 98.92 1049.97 98.92C1053.23 98.92 1057.42 98.5531 1061.51 96.7983C1066.58 94.6279 1070.51 90.6989 1072.68 85.6347C1074.41 81.5833 1074.8 77.4568 1074.8 74.18C1074.8 70.8479 1074.42 65.5318 1071.65 60.5607C1072.06 59.839 1072.44 59.0882 1072.77 58.3107C1074.51 54.2593 1074.89 50.1328 1074.89 46.856C1074.89 42.4892 1074.24 34.7151 1068.4 28.7754C1062.52 22.7136 1054.71 21.932 1050.15 21.932C1046.87 21.932 1042.64 22.3314 1038.5 24.1878C1033.62 26.3097 1029.85 30.0337 1027.61 34.7331Z" fill="#D13834"/>
<path d="M50.3022 184.024C46.0089 184.024 42.3596 183.288 39.3542 181.816C36.4102 180.283 34.0182 178.289 32.1782 175.836C30.3382 173.383 28.8969 170.684 27.8542 167.74C26.8729 164.796 26.1982 161.852 25.8302 158.908C25.4622 155.903 25.2782 153.173 25.2782 150.72C25.2782 148.512 25.4622 145.967 25.8302 143.084C26.1982 140.201 26.8422 137.288 27.7622 134.344C28.7436 131.339 30.1542 128.579 31.9942 126.064C33.8342 123.488 36.2262 121.433 39.1702 119.9C42.1756 118.305 45.8249 117.508 50.1182 117.508C54.2889 117.508 57.8156 118.275 60.6982 119.808C63.6422 121.341 66.0036 123.365 67.7822 125.88C69.6222 128.333 71.0329 131.063 72.0142 134.068C73.0569 137.012 73.7622 139.956 74.1302 142.9C74.4982 145.844 74.6822 148.481 74.6822 150.812C74.6822 153.265 74.4676 155.995 74.0382 159C73.6702 161.944 72.9649 164.888 71.9222 167.832C70.9409 170.776 69.5302 173.475 67.6902 175.928C65.9116 178.381 63.5809 180.344 60.6982 181.816C57.8769 183.288 54.4116 184.024 50.3022 184.024ZM49.9342 167.096C51.5289 167.096 52.8169 166.728 53.7982 165.992C54.7796 165.195 55.5462 164.183 56.0982 162.956C56.6502 161.729 57.0489 160.411 57.2942 159C57.5396 157.528 57.6929 156.117 57.7542 154.768C57.8156 153.357 57.8462 152.161 57.8462 151.18V150.72C57.8462 147.163 57.5396 144.188 56.9262 141.796C56.3742 139.343 55.5156 137.503 54.3502 136.276C53.2462 134.988 51.8049 134.344 50.0262 134.344C48.1862 134.344 46.6836 134.957 45.5182 136.184C44.3529 137.411 43.4942 139.251 42.9422 141.704C42.3902 144.157 42.1142 147.193 42.1142 150.812C42.1142 154.308 42.3902 157.283 42.9422 159.736C43.5556 162.128 44.4449 163.968 45.6102 165.256C46.7756 166.483 48.2169 167.096 49.9342 167.096Z" fill="white"/>
<path d="M149.958 181.172C151.185 182.399 153.332 183.012 156.398 183.012C159.526 183.012 161.704 182.399 162.93 181.172C164.157 179.945 164.77 177.799 164.77 174.732V126.892C164.77 123.764 164.157 121.587 162.93 120.36C161.704 119.072 159.557 118.428 156.49 118.428C155.12 118.428 153.933 118.546 152.928 118.781C152.687 118.837 152.456 118.9 152.236 118.97C151.601 119.187 150.948 119.523 150.277 119.98C149.782 120.317 149.277 120.72 148.762 121.188L137.078 131.676C134.625 133.823 133.337 135.847 133.214 137.748C133.092 139.649 134.042 141.673 136.066 143.82C138.029 145.905 139.838 146.979 141.494 147.04C143.212 147.101 145.113 146.212 147.198 144.372L148.118 143.548V174.64C148.118 177.768 148.732 179.945 149.958 181.172Z" fill="white"/>
<path d="M233.605 183.012C231.336 183.012 229.373 182.153 227.717 180.436C226.061 178.719 225.233 176.725 225.233 174.456C225.233 173.291 225.356 172.187 225.601 171.144C225.908 170.101 226.307 169.12 226.797 168.2C227.288 167.219 227.871 166.329 228.545 165.532C230.14 163.508 232.103 161.668 234.433 160.012C236.764 158.356 239.187 156.792 241.701 155.32C244.216 153.848 246.577 152.376 248.785 150.904C250.993 149.432 252.772 147.837 254.121 146.12C255.532 144.403 256.237 142.501 256.237 140.416C256.237 139.803 256.084 139.036 255.777 138.116C255.532 137.135 254.919 136.276 253.937 135.54C252.956 134.743 251.392 134.344 249.245 134.344C247.957 134.344 246.853 134.528 245.933 134.896C245.013 135.203 244.277 135.693 243.725 136.368C243.173 136.981 242.744 137.779 242.437 138.76C242.192 139.68 242.069 140.753 242.069 141.98C242.069 143.268 241.947 144.525 241.701 145.752C241.456 146.917 240.751 147.899 239.585 148.696C238.42 149.432 236.427 149.8 233.605 149.8C230.845 149.8 228.883 149.401 227.717 148.604C226.552 147.745 225.847 146.672 225.601 145.384C225.356 144.035 225.233 142.685 225.233 141.336C225.233 138.515 225.755 135.693 226.797 132.872C227.901 130.051 229.496 127.505 231.581 125.236C233.667 122.905 236.181 121.035 239.125 119.624C242.069 118.213 245.412 117.508 249.153 117.508C253.631 117.508 257.679 118.612 261.297 120.82C264.916 122.967 267.799 125.88 269.945 129.56C272.092 133.179 273.165 137.257 273.165 141.796C273.165 144.801 272.675 147.531 271.693 149.984C270.712 152.437 269.424 154.645 267.829 156.608C266.296 158.509 264.64 160.165 262.861 161.576C261.083 162.925 259.365 164.06 257.709 164.98C256.901 165.399 256.158 165.767 255.482 166.084H267.001C268.412 166.084 269.761 166.207 271.049 166.452C272.337 166.697 273.38 167.433 274.177 168.66C274.975 169.825 275.373 171.819 275.373 174.64C275.373 177.339 274.944 179.301 274.085 180.528C273.288 181.693 272.215 182.399 270.865 182.644C269.577 182.889 268.228 183.012 266.817 183.012H233.605Z" fill="white"/>
<path d="M349.842 183.932C346.53 183.932 343.402 183.38 340.458 182.276C337.514 181.172 334.877 179.669 332.546 177.768C330.277 175.805 328.498 173.597 327.21 171.144C325.922 168.629 325.278 166.023 325.278 163.324C325.278 159.46 328.345 157.528 334.478 157.528C336.196 157.528 337.484 157.681 338.342 157.988C339.262 158.295 339.998 158.847 340.55 159.644C341.102 160.38 341.654 161.453 342.206 162.864C342.206 162.864 342.39 163.263 342.758 164.06C343.188 164.796 343.954 165.563 345.058 166.36C346.162 167.096 347.788 167.464 349.934 167.464C351.59 167.464 353.001 167.249 354.166 166.82C355.332 166.391 356.221 165.777 356.834 164.98C357.509 164.183 357.846 163.263 357.846 162.22C357.846 160.993 357.54 159.981 356.926 159.184C356.313 158.387 355.485 157.804 354.442 157.436C353.4 157.068 352.173 156.884 350.762 156.884C349.413 156.884 348.094 156.792 346.806 156.608C345.518 156.424 344.445 155.78 343.586 154.676C342.789 153.572 342.39 151.64 342.39 148.88C342.39 146.059 342.789 144.127 343.586 143.084C344.445 141.98 345.518 141.367 346.806 141.244C348.156 141.06 349.505 140.968 350.854 140.968C352.081 140.968 353.093 140.907 353.89 140.784C354.749 140.6 355.393 140.293 355.822 139.864C356.252 139.435 356.466 138.821 356.466 138.024C356.466 137.104 356.221 136.337 355.73 135.724C355.301 135.049 354.657 134.559 353.798 134.252C352.94 133.884 351.928 133.7 350.762 133.7C349.29 133.7 348.125 133.884 347.266 134.252C346.408 134.62 345.733 135.111 345.242 135.724C344.813 136.276 344.445 136.828 344.138 137.38C342.973 139.956 341.409 141.52 339.446 142.072C337.545 142.563 335.245 142.072 332.546 140.6C329.909 139.005 328.406 137.319 328.038 135.54C327.67 133.761 328.1 131.645 329.326 129.192C329.326 129.253 329.48 128.916 329.786 128.18C330.154 127.383 330.798 126.401 331.718 125.236C332.638 124.071 333.865 122.905 335.398 121.74C336.932 120.513 338.894 119.501 341.286 118.704C343.678 117.907 346.53 117.508 349.842 117.508C353.706 117.508 357.08 118.121 359.962 119.348C362.906 120.575 365.36 122.169 367.322 124.132C369.346 126.095 370.849 128.272 371.83 130.664C372.873 132.995 373.394 135.325 373.394 137.656C373.394 139.925 372.996 141.857 372.198 143.452C371.462 144.985 370.573 146.212 369.53 147.132C368.549 147.991 367.721 148.604 367.046 148.972C367.598 149.34 368.304 149.892 369.162 150.628C370.021 151.303 370.849 152.192 371.646 153.296C372.505 154.4 373.21 155.688 373.762 157.16C374.376 158.571 374.682 160.196 374.682 162.036C374.682 166.268 373.609 170.04 371.462 173.352C369.316 176.603 366.372 179.179 362.63 181.08C358.889 182.981 354.626 183.932 349.842 183.932Z" fill="white"/>
<path d="M464.224 182.736C461.464 182.736 459.501 182.337 458.336 181.54C457.171 180.681 456.465 179.608 456.22 178.32C455.975 176.971 455.852 175.621 455.852 174.272V164.704H433.496C430.736 164.704 428.773 164.305 427.608 163.508C426.443 162.649 425.737 161.576 425.492 160.288C425.247 158.939 425.124 157.589 425.124 156.24C425.124 155.565 425.124 155.013 425.124 154.584C425.185 154.155 425.277 153.725 425.4 153.296L432.484 124.684C433.281 121.311 434.447 119.287 435.98 118.612C437.513 117.937 439.813 117.968 442.88 118.704C445.149 119.317 446.897 120.207 448.124 121.372C449.412 122.476 449.872 123.825 449.504 125.42L443.8 148.88H455.852V126.34C455.852 124.991 455.975 123.733 456.22 122.568C456.465 121.341 457.171 120.329 458.336 119.532C459.563 118.735 461.587 118.336 464.408 118.336C467.168 118.336 469.131 118.765 470.296 119.624C471.461 120.421 472.167 121.464 472.412 122.752C472.657 124.04 472.78 125.389 472.78 126.8V174.364C472.78 175.775 472.627 177.124 472.32 178.412C472.075 179.7 471.369 180.743 470.204 181.54C469.039 182.337 467.045 182.736 464.224 182.736Z" fill="white"/>
<path d="M549.026 184.024C546.144 184.024 543.598 183.687 541.39 183.012C539.182 182.399 537.312 181.663 535.778 180.804C534.306 179.945 533.172 179.209 532.374 178.596C531.638 177.921 531.27 177.584 531.27 177.584C530.35 176.787 529.522 175.959 528.786 175.1C528.112 174.18 527.774 173.137 527.774 171.972C527.774 170.991 528.05 170.009 528.602 169.028C529.154 167.985 530.013 166.881 531.178 165.716C532.098 164.673 533.018 163.907 533.938 163.416C534.92 162.864 535.901 162.588 536.882 162.588C537.802 162.588 538.722 162.833 539.642 163.324C540.624 163.753 541.789 164.52 543.138 165.624C543.138 165.624 543.292 165.747 543.598 165.992C543.966 166.237 544.518 166.483 545.254 166.728C546.052 166.973 547.125 167.096 548.474 167.096C549.762 167.096 550.836 166.881 551.694 166.452C552.614 166.023 553.289 165.44 553.718 164.704C554.209 163.907 554.454 162.956 554.454 161.852C554.454 160.809 554.209 159.889 553.718 159.092C553.228 158.295 552.553 157.681 551.694 157.252C550.836 156.761 549.854 156.516 548.75 156.516C548.014 156.516 547.37 156.608 546.818 156.792C546.328 156.976 545.929 157.191 545.622 157.436C545.377 157.62 545.224 157.743 545.162 157.804C544.549 158.356 543.844 158.877 543.046 159.368C542.249 159.797 541.237 160.012 540.01 160.012C539.09 160.012 538.14 159.859 537.158 159.552C536.177 159.245 535.134 158.785 534.03 158.172C532.068 157.129 530.688 156.209 529.89 155.412C529.154 154.615 528.786 153.725 528.786 152.744L532.19 126.616C532.313 125.696 532.558 124.592 532.926 123.304C533.294 121.955 534.061 120.789 535.226 119.808C536.392 118.765 538.201 118.244 540.654 118.244L561.722 118.336C563.133 118.336 564.452 118.459 565.678 118.704C566.966 118.949 568.009 119.685 568.806 120.912C569.665 122.077 570.094 124.101 570.094 126.984C570.094 129.621 569.696 131.523 568.898 132.688C568.162 133.792 567.181 134.467 565.954 134.712C564.728 134.896 563.47 134.988 562.182 134.988H548.014L547.37 139.864C547.554 139.803 547.738 139.772 547.922 139.772C548.106 139.772 548.26 139.772 548.382 139.772C548.566 139.711 548.75 139.68 548.934 139.68H549.394C552.277 139.68 555.037 140.263 557.674 141.428C560.312 142.532 562.642 144.096 564.666 146.12C566.752 148.144 568.377 150.444 569.542 153.02C570.769 155.596 571.382 158.325 571.382 161.208C571.382 165.501 570.401 169.365 568.438 172.8C566.476 176.235 563.808 178.964 560.434 180.988C557.061 183.012 553.258 184.024 549.026 184.024Z" fill="white"/>
<path fill-rule="evenodd" clip-rule="evenodd" d="M650.576 183.932C645.73 183.932 641.56 182.889 638.064 180.804C634.629 178.657 631.961 175.621 630.06 171.696C628.22 167.709 627.3 162.987 627.3 157.528C627.3 152.867 627.852 148.543 628.956 144.556C630.06 140.569 631.624 136.981 633.648 133.792C635.733 130.541 638.217 127.781 641.1 125.512C644.044 123.243 647.325 121.495 650.944 120.268C654.624 119.041 658.58 118.428 662.812 118.428C664.161 118.428 665.449 118.551 666.676 118.796C667.902 119.041 668.914 119.747 669.712 120.912C670.509 122.077 670.908 124.071 670.908 126.892C670.908 129.652 670.478 131.615 669.62 132.78C668.822 133.945 667.78 134.651 666.492 134.896C665.204 135.141 663.854 135.264 662.444 135.264C659.684 135.264 657.322 135.632 655.36 136.368C653.458 137.104 651.864 138.024 650.576 139.128C649.349 140.232 648.368 141.336 647.632 142.44C647.088 143.256 646.66 143.972 646.351 144.587C646.841 144.412 647.391 144.248 648 144.096C649.042 143.851 650.116 143.728 651.22 143.728C655.084 143.728 658.641 144.617 661.892 146.396C665.142 148.175 667.749 150.505 669.712 153.388C671.674 156.271 672.656 159.429 672.656 162.864C672.656 166.789 671.674 170.347 669.712 173.536C667.749 176.725 665.081 179.271 661.708 181.172C658.396 183.012 654.685 183.932 650.576 183.932ZM653.52 167.74C652.661 168.047 651.557 168.2 650.208 168.2C648.858 168.2 647.754 168.047 646.896 167.74C646.098 167.372 645.516 166.82 645.148 166.084C644.78 165.287 644.596 164.305 644.596 163.14C644.596 162.281 644.841 161.545 645.332 160.932C645.822 160.257 646.528 159.736 647.448 159.368C648.429 159 649.533 158.816 650.76 158.816C651.802 158.816 652.722 159 653.52 159.368C654.317 159.736 654.93 160.257 655.36 160.932C655.789 161.607 656.004 162.404 656.004 163.324C656.004 164.428 655.789 165.348 655.36 166.084C654.992 166.82 654.378 167.372 653.52 167.74Z" fill="white"/>
<path d="M743.723 182.828C740.963 182.828 739 182.521 737.835 181.908C736.669 181.295 735.933 180.436 735.627 179.332C735.381 178.167 735.259 176.879 735.259 175.468C735.259 172.279 735.627 169.212 736.363 166.268C737.16 163.324 738.172 160.503 739.399 157.804C740.687 155.105 742.036 152.591 743.447 150.26C744.919 147.868 746.329 145.721 747.679 143.82C749.028 141.857 750.193 140.171 751.175 138.76C752.217 137.349 752.892 136.215 753.199 135.356H734.799C733.449 135.356 732.131 135.233 730.843 134.988C729.555 134.681 728.481 133.945 727.623 132.78C726.825 131.615 726.427 129.652 726.427 126.892C726.427 124.132 726.825 122.169 727.623 121.004C728.42 119.839 729.401 119.133 730.567 118.888C731.793 118.643 733.051 118.52 734.339 118.52H765.159C767.98 118.52 769.943 118.949 771.047 119.808C772.212 120.605 772.917 121.648 773.163 122.936C773.408 124.224 773.531 125.573 773.531 126.984C773.531 129.376 773.009 131.921 771.967 134.62C770.924 137.257 769.605 139.987 768.011 142.808C766.416 145.568 764.699 148.389 762.859 151.272C761.019 154.093 759.301 156.915 757.707 159.736C756.112 162.557 754.793 165.317 753.751 168.016C752.708 170.653 752.187 173.199 752.187 175.652C752.187 177.001 752.033 178.228 751.727 179.332C751.481 180.436 750.745 181.295 749.519 181.908C748.353 182.521 746.421 182.828 743.723 182.828Z" fill="white"/>
<path fill-rule="evenodd" clip-rule="evenodd" d="M850.229 184.024C845.752 184.024 841.704 183.073 838.085 181.172C834.528 179.209 831.676 176.572 829.529 173.26C827.444 169.887 826.401 166.084 826.401 161.852C826.401 159.828 826.739 157.988 827.413 156.332C828.088 154.615 828.885 153.143 829.805 151.916C830.725 150.689 831.553 149.739 832.289 149.064C832.578 148.797 832.827 148.571 833.036 148.384C832.72 148.071 832.318 147.653 831.829 147.132C830.971 146.151 830.143 144.832 829.345 143.176C828.609 141.52 828.241 139.588 828.241 137.38C828.241 133.577 829.223 130.173 831.185 127.168C833.148 124.101 835.785 121.679 839.097 119.9C842.471 118.06 846.181 117.14 850.229 117.14C854.216 117.14 857.835 118.06 861.085 119.9C864.336 121.679 866.912 124.132 868.813 127.26C870.776 130.388 871.757 133.884 871.757 137.748C871.757 139.22 871.512 140.631 871.021 141.98C870.531 143.268 869.948 144.433 869.273 145.476C868.599 146.457 867.985 147.255 867.433 147.868C867.284 148.034 867.15 148.181 867.033 148.311C867.242 148.51 867.498 148.761 867.801 149.064C868.599 149.8 869.427 150.781 870.285 152.008C871.205 153.235 871.972 154.707 872.585 156.424C873.26 158.08 873.597 159.889 873.597 161.852C873.597 165.348 872.892 168.476 871.481 171.236C870.071 173.996 868.2 176.327 865.869 178.228C863.6 180.129 861.085 181.571 858.325 182.552C855.627 183.533 852.928 184.024 850.229 184.024ZM853.725 167.28C852.744 167.709 851.548 167.924 850.137 167.924C848.665 167.924 847.408 167.709 846.365 167.28C845.384 166.789 844.617 166.115 844.065 165.256C843.513 164.397 843.237 163.385 843.237 162.22C843.237 161.055 843.483 160.073 843.973 159.276C844.525 158.417 845.292 157.773 846.273 157.344C847.316 156.915 848.543 156.7 849.953 156.7C851.425 156.7 852.652 156.915 853.633 157.344C854.676 157.773 855.443 158.417 855.933 159.276C856.485 160.073 856.761 161.055 856.761 162.22C856.761 163.385 856.485 164.397 855.933 165.256C855.443 166.115 854.707 166.789 853.725 167.28ZM852.713 140.692C852.039 140.999 851.18 141.152 850.137 141.152C849.156 141.152 848.297 140.999 847.561 140.692C846.825 140.385 846.243 139.956 845.813 139.404C845.445 138.791 845.261 138.085 845.261 137.288C845.261 136.491 845.445 135.816 845.813 135.264C846.181 134.651 846.733 134.191 847.469 133.884C848.205 133.577 849.064 133.424 850.045 133.424C851.088 133.424 851.947 133.577 852.621 133.884C853.357 134.191 853.909 134.651 854.277 135.264C854.707 135.816 854.921 136.491 854.921 137.288C854.921 138.085 854.737 138.791 854.369 139.404C854.001 139.956 853.449 140.385 852.713 140.692Z" fill="white"/>
<path fill-rule="evenodd" clip-rule="evenodd" d="M936.776 182.92C935.488 182.92 934.23 182.767 933.004 182.46C931.838 182.215 930.857 181.509 930.06 180.344C929.324 179.179 928.956 177.216 928.956 174.456C928.956 171.635 929.354 169.672 930.152 168.568C931.01 167.403 932.084 166.697 933.372 166.452C934.721 166.207 936.101 166.084 937.512 166.084C940.272 166.084 942.602 165.716 944.504 164.98C946.466 164.244 948.061 163.324 949.288 162.22C950.576 161.116 951.557 160.012 952.232 158.908C952.78 158.085 953.192 157.365 953.468 156.747C953.006 156.905 952.472 157.073 951.864 157.252C950.821 157.497 949.748 157.62 948.644 157.62C944.841 157.62 941.314 156.731 938.064 154.952C934.813 153.173 932.206 150.843 930.244 147.96C928.281 145.077 927.3 141.949 927.3 138.576C927.3 134.589 928.281 131.001 930.244 127.812C932.206 124.623 934.844 122.108 938.156 120.268C941.468 118.367 945.178 117.416 949.288 117.416C954.133 117.416 958.304 118.489 961.8 120.636C965.296 122.721 967.964 125.727 969.804 129.652C971.705 133.577 972.656 138.3 972.656 143.82C972.656 148.481 972.104 152.836 971 156.884C969.896 160.871 968.301 164.489 966.216 167.74C964.192 170.929 961.708 173.659 958.764 175.928C955.82 178.197 952.508 179.945 948.828 181.172C945.148 182.337 941.13 182.92 936.776 182.92ZM952.508 142.072C951.588 142.379 950.484 142.532 949.196 142.532C948.153 142.532 947.233 142.348 946.436 141.98C945.638 141.612 944.994 141.091 944.504 140.416C944.074 139.68 943.86 138.883 943.86 138.024C943.86 136.859 944.044 135.939 944.412 135.264C944.841 134.528 945.485 134.007 946.344 133.7C947.202 133.332 948.306 133.148 949.656 133.148C951.005 133.148 952.078 133.332 952.876 133.7C953.734 134.007 954.348 134.528 954.716 135.264C955.145 136 955.36 136.981 955.36 138.208C955.36 139.067 955.114 139.833 954.624 140.508C954.133 141.183 953.428 141.704 952.508 142.072Z" fill="white"/>
<path d="M1050.06 155.596C1046.81 155.596 1044.51 154.952 1043.16 153.664C1041.87 152.376 1041.23 150.137 1041.23 146.948C1041.23 144.679 1041.5 142.9 1042.06 141.612C1042.67 140.324 1043.62 139.404 1044.91 138.852C1046.2 138.239 1047.94 137.932 1050.15 137.932C1053.4 137.932 1055.67 138.607 1056.96 139.956C1058.25 141.244 1058.89 143.544 1058.89 146.856C1058.89 149.003 1058.62 150.72 1058.06 152.008C1057.51 153.296 1056.59 154.216 1055.3 154.768C1054.02 155.32 1052.27 155.596 1050.06 155.596ZM1049.97 182.92C1046.72 182.92 1044.42 182.276 1043.07 180.988C1041.78 179.7 1041.14 177.461 1041.14 174.272C1041.14 172.003 1041.41 170.224 1041.96 168.936C1042.58 167.648 1043.53 166.728 1044.82 166.176C1046.1 165.563 1047.85 165.256 1050.06 165.256C1053.31 165.256 1055.58 165.931 1056.87 167.28C1058.16 168.568 1058.8 170.868 1058.8 174.18C1058.8 176.327 1058.52 178.044 1057.97 179.332C1057.42 180.62 1056.5 181.54 1055.21 182.092C1053.92 182.644 1052.18 182.92 1049.97 182.92Z" fill="white"/>
<path d="M838.085 81.172L830.356 95.1812C830.451 95.2338 830.547 95.2853 830.643 95.3359L838.085 81.172ZM829.529 73.26L815.92 81.6732C815.98 81.7702 816.041 81.8666 816.103 81.9623L829.529 73.26ZM827.413 56.332L842.231 62.3687C842.256 62.3068 842.281 62.2447 842.305 62.1824L827.413 56.332ZM832.289 49.064L843.101 60.8585C843.115 60.846 843.128 60.8334 843.142 60.8209L832.289 49.064ZM833.761 47.776L842.637 61.0888C843.513 60.5043 844.33 59.8347 845.075 59.0897L833.761 47.776ZM832.841 48.328L823.734 35.1729C819.376 38.1897 816.795 43.1686 816.842 48.4683C816.888 53.7681 819.556 58.7009 823.966 61.6408L832.841 48.328ZM833.669 48.972L823.674 61.4659C824.554 62.1699 825.506 62.7789 826.514 63.2828L833.669 48.972ZM831.829 47.132L819.788 57.6681C819.909 57.8058 820.031 57.9415 820.157 58.0751L831.829 47.132ZM829.345 43.176L814.724 49.6742C814.79 49.8229 814.859 49.9705 814.929 50.117L829.345 43.176ZM831.185 27.168L844.582 35.9166C844.608 35.8755 844.635 35.8342 844.662 35.7929L831.185 27.168ZM839.097 19.9L846.667 33.9959C846.698 33.9795 846.728 33.963 846.759 33.9463L839.097 19.9ZM861.085 19.9L853.204 33.8241C853.271 33.862 853.338 33.8993 853.405 33.9362L861.085 19.9ZM868.813 27.26L855.141 35.5706C855.18 35.6353 855.22 35.6997 855.26 35.7639L868.813 27.26ZM871.021 41.98L885.973 47.6759C886.002 47.6001 886.03 47.5241 886.058 47.4479L871.021 41.98ZM869.273 45.476L882.458 54.5405C882.543 54.4175 882.625 54.2933 882.706 54.168L869.273 45.476ZM866.421 48.972L855.108 37.6583C853.892 38.8743 852.88 40.2784 852.11 41.8165L866.421 48.972ZM867.249 48.328L877.953 60.2207C881.51 57.0195 883.447 52.3943 883.233 47.6137C883.02 42.8332 880.678 38.3992 876.849 35.528L867.249 48.328ZM866.421 47.776L855.108 59.0897C855.853 59.8347 856.669 60.5043 857.546 61.0888L866.421 47.776ZM867.801 49.064L856.488 60.3777C856.638 60.5285 856.792 60.6762 856.949 60.8209L867.801 49.064ZM870.285 52.008L857.178 61.1834C857.278 61.3266 857.38 61.4682 857.485 61.608L870.285 52.008ZM872.585 56.424L857.517 61.8054C857.596 62.0256 857.68 62.2441 857.768 62.4607L872.585 56.424ZM865.869 78.228L855.755 65.8302C855.701 65.8743 855.647 65.9188 855.594 65.9637L865.869 78.228ZM858.325 82.552L852.965 67.4766C852.929 67.4893 852.893 67.5023 852.857 67.5153L858.325 82.552ZM853.725 67.28L860.138 81.9385C860.389 81.829 860.636 81.713 860.881 81.5908L853.725 67.28ZM855.933 65.256L842.474 56.6039C842.324 56.838 842.179 57.0761 842.041 57.3178L855.933 65.256ZM855.933 59.276L842.041 67.2142C842.27 67.6144 842.516 68.0044 842.778 68.3834L855.933 59.276ZM853.633 57.344L847.22 72.0025C847.327 72.0491 847.434 72.0946 847.541 72.1389L853.633 57.344ZM846.273 57.344L840.181 42.5491C840.074 42.5934 839.967 42.6389 839.86 42.6855L846.273 57.344ZM843.973 59.276L830.514 50.6239C830.458 50.7122 830.402 50.801 830.347 50.8904L843.973 59.276ZM846.365 67.28L839.21 81.5908C839.558 81.7651 839.913 81.9265 840.273 82.0748L846.365 67.28ZM852.713 40.692L846.559 25.9228C846.403 25.9881 846.247 26.0559 846.092 26.1261L852.713 40.692ZM854.369 39.404L867.682 48.2792C867.823 48.068 867.959 47.8535 868.089 47.6359L854.369 39.404ZM854.277 35.264L840.557 43.4959C840.888 44.0477 841.253 44.5791 841.648 45.087L854.277 35.264ZM852.621 33.884L846 48.4499C846.155 48.5201 846.311 48.5879 846.467 48.6532L852.621 33.884ZM845.813 35.264L859.126 44.1392C859.267 43.928 859.403 43.7136 859.533 43.4959L845.813 35.264ZM845.813 39.404L832.093 47.6359C832.424 48.1877 832.789 48.7191 833.184 49.227L845.813 39.404ZM850.229 68.024C848.093 68.024 846.637 67.5914 845.527 67.0081L830.643 95.3359C836.77 98.5553 843.411 100.024 850.229 100.024V68.024ZM845.815 67.1628C844.494 66.4341 843.626 65.592 842.956 64.5577L816.103 81.9623C819.726 87.552 824.562 91.9846 830.356 95.1812L845.815 67.1628ZM843.139 64.8468C842.722 64.1726 842.401 63.3199 842.401 61.852H810.401C810.401 68.8481 812.166 75.6007 815.92 81.6732L843.139 64.8468ZM842.401 61.852C842.401 61.7295 842.411 61.7335 842.392 61.8392C842.372 61.9489 842.326 62.1349 842.231 62.3687L812.596 50.2953C811.044 54.1045 810.401 58.0298 810.401 61.852H842.401ZM842.305 62.1824C842.557 61.5414 842.702 61.3872 842.605 61.516L817.005 42.316C815.069 44.8981 813.619 47.688 812.521 50.4816L842.305 62.1824ZM842.605 61.516C842.879 61.1505 843.071 60.9185 843.182 60.7915C843.299 60.6567 843.271 60.7022 843.101 60.8585L821.478 37.2695C819.735 38.8669 818.24 40.67 817.005 42.316L842.605 61.516ZM843.142 60.8209C843.311 60.6645 843.451 60.5366 843.564 60.4341C843.68 60.3297 843.753 60.2648 843.791 60.2312C843.839 60.1894 843.799 60.226 843.698 60.3088C843.645 60.3518 843.54 60.4366 843.397 60.5461C843.323 60.6025 843.225 60.6762 843.107 60.7617C842.992 60.8453 842.832 60.9585 842.637 61.0888L824.886 34.4632C823.382 35.4658 821.761 37.0074 821.437 37.3071L843.142 60.8209ZM845.075 59.0897C845.116 59.049 846.149 58.0562 847.12 56.5994C847.416 56.1551 847.937 55.329 848.433 54.2148C848.832 53.3171 849.813 50.9376 849.813 47.7113C849.813 43.8061 848.269 38.551 843.412 34.9083C839.421 31.9147 835.348 31.707 833.808 31.707C830.721 31.707 828.405 32.6427 828.172 32.73C827.434 33.007 826.871 33.281 826.606 33.4134C826.046 33.6936 825.612 33.9515 825.437 34.0561C824.775 34.4537 824.094 34.9238 823.734 35.1729L841.949 61.4831C842.386 61.1802 842.257 61.2823 841.901 61.4959C841.804 61.5545 841.431 61.7779 840.917 62.0351C840.675 62.156 840.131 62.4214 839.408 62.6926C839.191 62.7741 836.886 63.707 833.807 63.707C832.27 63.707 828.201 63.5 824.211 60.5079C819.357 56.8666 817.813 51.6136 817.813 47.7113C817.813 44.4879 818.793 42.112 819.191 41.2186C819.684 40.1087 820.202 39.2876 820.494 38.8491C821.082 37.9684 821.626 37.347 821.831 37.116C822.097 36.8176 822.319 36.5907 822.448 36.4623L845.075 59.0897ZM823.966 61.6408C824.527 62.0144 824.321 61.8946 823.915 61.5786C823.879 61.5508 823.233 61.06 822.498 60.3245C822.4 60.2271 820.892 58.7937 819.685 56.5139C819.228 55.6512 817.256 51.8951 817.988 46.7698C818.415 43.7776 819.73 40.6942 822.116 38.1314C824.377 35.7033 826.913 34.4736 828.765 33.8562C832.064 32.7566 834.825 33.0489 835.585 33.1334C836.711 33.2585 837.582 33.4783 838.018 33.5973C838.913 33.8414 839.583 34.1107 839.814 34.2049C840.359 34.4268 840.754 34.6256 840.825 34.6612L826.514 63.2828C826.677 63.3644 827.144 63.5967 827.74 63.8398C827.997 63.9445 828.688 64.2212 829.598 64.4696C830.043 64.5908 830.92 64.812 832.051 64.9376C832.817 65.0228 835.582 65.3148 838.884 64.2143C840.738 63.5964 843.275 62.366 845.536 59.9371C847.923 57.3734 849.238 54.289 849.666 51.2955C850.399 46.1676 848.425 42.4083 847.966 41.5415C846.755 39.2536 845.237 37.8089 845.125 37.6971C844.361 36.9329 843.666 36.4009 843.561 36.3194C842.879 35.7887 842.076 35.2549 841.716 35.0152L823.966 61.6408ZM843.664 36.4781C843.869 36.6419 844.022 36.7742 844.11 36.8513C844.202 36.9326 844.267 36.9926 844.299 37.0221C844.332 37.0532 844.348 37.0686 844.343 37.0643C844.34 37.0606 844.323 37.0447 844.293 37.0143C844.23 36.9517 844.133 36.8526 843.995 36.7093C843.859 36.5675 843.695 36.3951 843.502 36.1889L820.157 58.0751C820.868 58.8336 822.297 60.364 823.674 61.4659L843.664 36.4781ZM843.871 36.5959C843.985 36.7264 844.058 36.8221 844.094 36.8709C844.13 36.92 844.135 36.9321 844.115 36.8987C844.069 36.8256 843.946 36.6177 843.761 36.235L814.929 50.117C816.119 52.5871 817.68 55.2587 819.788 57.6681L843.871 36.5959ZM843.966 36.6778C844.315 37.4633 844.241 37.8273 844.241 37.38H812.241C812.241 41.3487 812.903 45.5767 814.724 49.6742L843.966 36.6778ZM844.241 37.38C844.241 36.4907 844.421 36.1628 844.582 35.9166L817.789 18.4194C814.024 24.1839 812.241 30.664 812.241 37.38H844.241ZM844.662 35.7929C845.105 35.1001 845.677 34.5279 846.667 33.9959L831.527 5.80409C825.894 8.82947 821.191 13.1026 817.709 18.5431L844.662 35.7929ZM846.759 33.9463C847.655 33.4574 848.71 33.14 850.229 33.14V1.14C843.652 1.14 837.286 2.66264 831.436 5.85367L846.759 33.9463ZM850.229 33.14C851.646 33.14 852.519 33.4365 853.204 33.8241L868.967 5.97589C863.15 2.68351 856.786 1.14 850.229 1.14V33.14ZM853.405 33.9362C854.222 34.3832 854.718 34.8751 855.141 35.5706L882.486 18.9494C879.106 13.3889 874.45 8.97417 868.765 5.8638L853.405 33.9362ZM855.26 35.7639C855.548 36.2224 855.757 36.7459 855.757 37.748H887.757C887.757 31.0221 886.004 24.5536 882.366 18.7561L855.26 35.7639ZM855.757 37.748C855.757 37.403 855.822 36.9597 855.985 36.5121L886.058 47.4479C887.202 44.3016 887.757 41.037 887.757 37.748H855.757ZM856.069 36.2841C855.935 36.6359 855.843 36.7803 855.84 36.784L882.706 54.168C884.053 52.0863 885.126 49.9001 885.973 47.6759L856.069 36.2841ZM856.089 36.4115C855.884 36.7087 855.73 36.9182 855.625 37.0546C855.517 37.1949 855.49 37.2211 855.541 37.1646L879.326 58.5714C880.498 57.2692 881.545 55.8679 882.458 54.5405L856.089 36.4115ZM855.541 37.1646C855.279 37.4551 855.093 37.6598 854.972 37.7924C854.943 37.824 854.921 37.8482 854.904 37.8658C854.888 37.8839 854.88 37.8917 854.881 37.8909C854.882 37.8903 854.885 37.8862 854.892 37.879C854.899 37.8719 854.91 37.86 854.926 37.844C854.949 37.8192 855.015 37.7508 855.108 37.6583L877.735 60.2857C878.23 59.7903 878.911 59.0322 879.326 58.5714L855.541 37.1646ZM852.11 41.8165C851.866 42.3059 851.259 43.5632 850.849 45.285C850.62 46.2477 849.323 51.6147 852.694 57.2339C857.07 64.5275 864.476 65.1476 867.362 64.9778C870.13 64.815 872.156 63.9581 872.741 63.7071C874.221 63.0728 875.276 62.3454 875.492 62.1985C875.9 61.9208 876.222 61.6751 876.405 61.5326C877.041 61.0384 877.639 60.5033 877.953 60.2207L856.546 36.4353C856.247 36.7047 856.4 36.5529 856.759 36.2734C856.873 36.1845 857.137 35.982 857.498 35.7369C857.666 35.6226 858.683 34.9172 860.136 34.2944C860.708 34.0492 862.723 33.1954 865.483 33.033C868.361 32.8637 875.761 33.4816 880.134 40.7705C883.503 46.3849 882.205 51.7445 881.979 52.6971C881.571 54.4089 880.969 55.6535 880.732 56.1275L852.11 41.8165ZM876.849 35.528C876.52 35.2807 875.927 34.8375 875.365 34.4632C875.223 34.3681 874.841 34.1146 874.347 33.8323C874.123 33.7044 873.59 33.4049 872.882 33.0903C872.529 32.9334 871.897 32.6668 871.08 32.4156C870.461 32.225 868.697 31.707 866.369 31.707C864.38 31.707 858.04 32.1431 853.566 38.1086C849.233 43.8862 850.42 49.8964 850.844 51.592C851.377 53.7231 852.23 55.2324 852.548 55.7787C852.962 56.4876 853.348 57.0228 853.574 57.3243C854.321 58.3208 855.045 59.0276 855.108 59.0897L877.735 36.4623C877.751 36.4784 878.444 37.1507 879.174 38.1242C879.396 38.42 879.778 38.9501 880.189 39.6547C880.505 40.1967 881.356 41.7024 881.889 43.8306C882.312 45.5233 883.499 51.5314 879.167 57.3076C874.694 63.2716 868.356 63.707 866.37 63.707C864.045 63.707 862.285 63.1897 861.67 63.0006C860.858 62.7508 860.232 62.4864 859.885 62.3323C859.19 62.0235 858.674 61.7326 858.47 61.6162C858.016 61.3569 857.689 61.1379 857.615 61.0888C857.33 60.8985 857.243 60.8233 857.649 61.128L876.849 35.528ZM857.546 61.0888C857.098 60.7903 856.767 60.5346 856.601 60.4042C856.416 60.258 856.277 60.1406 856.198 60.0736C856.047 59.9441 855.967 59.8677 855.987 59.8869C856.025 59.9219 856.178 60.0677 856.488 60.3777L879.115 37.7503C878.689 37.3243 878.244 36.8874 877.821 36.4931C877.715 36.3941 876.642 35.3602 875.297 34.4632L857.546 61.0888ZM856.949 60.8209C856.781 60.6656 856.731 60.5979 856.792 60.6699C856.85 60.7389 856.98 60.9011 857.178 61.1834L883.393 42.8326C882.106 40.9936 880.543 39.0507 878.654 37.3071L856.949 60.8209ZM857.485 61.608C857.382 61.4697 857.346 61.3973 857.36 61.423C857.374 61.4501 857.433 61.5692 857.517 61.8054L887.653 51.0426C886.599 48.0907 885.131 45.1352 883.085 42.408L857.485 61.608ZM857.768 62.4607C857.685 62.2585 857.639 62.0826 857.615 61.9555C857.592 61.8316 857.597 61.7898 857.597 61.852H889.597C889.597 58.0223 888.931 54.1393 887.403 50.3873L857.768 62.4607ZM857.597 61.852C857.597 63.1432 857.353 63.7228 857.234 63.9542L885.728 78.5178C888.431 73.2292 889.597 67.5528 889.597 61.852H857.597ZM857.234 63.9542C856.801 64.8028 856.316 65.3727 855.755 65.8302L875.983 90.6258C880.084 87.2806 883.341 83.1892 885.728 78.5178L857.234 63.9542ZM855.594 65.9637C854.767 66.6565 853.913 67.1395 852.965 67.4766L863.685 97.6274C868.257 96.0018 872.433 93.6021 876.145 90.4923L855.594 65.9637ZM852.857 67.5153C851.798 67.9004 850.946 68.024 850.229 68.024V100.024C854.909 100.024 859.455 99.1662 863.793 97.5887L852.857 67.5153ZM850.137 83.924C853.089 83.924 856.603 83.4854 860.138 81.9385L847.312 52.6215C848.885 51.9333 850.007 51.924 850.137 51.924V83.924ZM860.881 81.5908C864.366 79.8481 867.598 77.0915 869.825 73.1942L842.041 57.3178C843.287 55.1379 845.047 53.7306 846.57 52.9692L860.881 81.5908ZM869.392 73.9081C871.829 70.1176 872.761 66.0074 872.761 62.22H840.761C840.761 60.7633 841.142 58.6771 842.474 56.6039L869.392 73.9081ZM872.761 62.22C872.761 58.4687 871.84 54.1433 869.088 50.1686L842.778 68.3834C841.131 66.0034 840.761 63.6406 840.761 62.22H872.761ZM869.825 51.3378C867.326 46.9643 863.574 44.1339 859.725 42.5491L847.541 72.1389C845.778 71.4127 843.559 69.8703 842.041 67.2142L869.825 51.3378ZM860.046 42.6855C856.437 41.1062 852.858 40.7 849.953 40.7V72.7C849.926 72.7 849.663 72.6992 849.219 72.6215C848.773 72.5434 848.071 72.3746 847.22 72.0025L860.046 42.6855ZM849.953 40.7C846.959 40.7 843.575 41.1516 840.181 42.5491L852.365 72.1388C851.057 72.6777 850.126 72.7 849.953 72.7V40.7ZM839.86 42.6855C836.14 44.3131 832.858 46.9777 830.514 50.6239L857.432 67.9281C856.192 69.8569 854.444 71.2336 852.686 72.0025L839.86 42.6855ZM830.347 50.8904C827.965 54.7602 827.237 58.8148 827.237 62.22H859.237C859.237 63.2945 859 65.3865 857.6 67.6616L830.347 50.8904ZM827.237 62.22C827.237 66.0074 828.17 70.1176 830.606 73.9081L857.524 56.6039C858.857 58.6771 859.237 60.7633 859.237 62.22H827.237ZM830.606 73.9081C832.829 77.3659 835.857 79.9142 839.21 81.5908L853.521 52.9692C854.911 53.6645 856.405 54.8634 857.524 56.6039L830.606 73.9081ZM840.273 82.0748C843.74 83.5025 847.183 83.924 850.137 83.924V51.924C850.148 51.924 851.076 51.9162 852.457 52.4851L840.273 82.0748ZM850.137 57.152C852.598 57.152 855.914 56.8123 859.334 55.2579L846.092 26.1261C848.163 25.185 849.762 25.152 850.137 25.152V57.152ZM858.867 55.4612C861.922 54.1884 865.235 51.9505 867.682 48.2792L841.056 30.5288C842.768 27.9615 844.977 26.5823 846.559 25.9228L858.867 55.4612ZM868.089 47.6359C870.116 44.2584 870.921 40.6436 870.921 37.288H838.921C838.921 35.5271 839.359 33.3229 840.649 31.1721L868.089 47.6359ZM870.921 37.288C870.921 33.456 869.822 29.1884 866.907 25.441L841.648 45.087C839.592 42.4436 838.921 39.5254 838.921 37.288H870.921ZM867.997 27.0321C865.67 23.153 862.287 20.578 858.775 19.1148L846.467 48.6532C844.428 47.8034 842.149 46.1484 840.557 43.4959L867.997 27.0321ZM859.242 19.3181C855.822 17.7637 852.506 17.424 850.045 17.424V49.424C849.67 49.424 848.071 49.391 846 48.4499L859.242 19.3181ZM850.045 17.424C847.425 17.424 844.395 17.8315 841.315 19.1148L853.623 48.6532C852.015 49.3232 850.703 49.424 850.045 49.424V17.424ZM841.315 19.1148C837.804 20.578 834.421 23.153 832.093 27.0321L859.533 43.4959C857.942 46.1484 855.663 47.8034 853.623 48.6532L841.315 19.1148ZM832.5 26.3888C830.053 30.0601 829.261 33.9786 829.261 37.288H861.261C861.261 39.0027 860.838 41.5719 859.126 44.1392L832.5 26.3888ZM829.261 37.288C829.261 40.6436 830.067 44.2584 832.093 47.6359L859.533 31.1721C860.824 33.3229 861.261 35.5271 861.261 37.288H829.261ZM833.184 49.227C835.534 52.2495 838.485 54.2435 841.407 55.4612L853.715 25.9228C855.166 26.5272 856.951 27.6625 858.443 29.581L833.184 49.227ZM841.407 55.4612C844.487 56.7445 847.517 57.152 850.137 57.152V25.152C850.795 25.152 852.107 25.2528 853.715 25.9228L841.407 55.4612Z" fill="#D13834"/>
<path d="M933.004 82.46L936.884 66.9377C936.69 66.8892 936.496 66.8444 936.3 66.8032L933.004 82.46ZM930.06 80.344L916.532 88.8879C916.637 89.0535 916.744 89.2172 916.855 89.3789L930.06 80.344ZM930.152 68.568L917.271 59.0768C917.241 59.1178 917.211 59.1589 917.181 59.2002L930.152 68.568ZM933.372 66.452L930.51 50.7101C930.466 50.7181 930.422 50.7262 930.378 50.7346L933.372 66.452ZM944.504 64.98L938.886 49.9987C938.833 50.0185 938.78 50.0386 938.728 50.0589L944.504 64.98ZM949.288 62.22L938.875 50.0719C938.777 50.1559 938.68 50.241 938.584 50.3273L949.288 62.22ZM952.232 58.908L938.919 50.0328C938.802 50.2079 938.689 50.3852 938.579 50.5648L952.232 58.908ZM953.704 56.148L938.934 49.9942C938.785 50.3538 938.648 50.7187 938.525 51.0883L953.704 56.148ZM954.164 55.044L964.499 42.8298C960.603 39.5337 955.369 38.2933 950.409 39.4908C945.449 40.6882 941.357 44.1799 939.394 48.8902L954.164 55.044ZM955.36 56.056L960.828 71.0927C966.189 69.143 970.107 64.4856 971.11 58.8692C972.114 53.2528 970.05 47.5271 965.695 43.8418L955.36 56.056ZM954.348 56.424L948.88 41.3873C948.721 41.4451 948.563 41.5055 948.405 41.5684L954.348 56.424ZM951.864 57.252L955.528 72.8267C955.814 72.7595 956.097 72.6846 956.378 72.6018L951.864 57.252ZM938.156 20.268L945.926 34.2545C945.991 34.2182 946.057 34.1813 946.122 34.144L938.156 20.268ZM961.8 20.636L953.428 34.2707C953.486 34.3066 953.544 34.342 953.603 34.3771L961.8 20.636ZM969.804 29.652L955.316 36.4429C955.345 36.5044 955.374 36.5657 955.404 36.6269L969.804 29.652ZM971 56.884L986.419 61.1541C986.425 61.134 986.43 61.114 986.436 61.0939L971 56.884ZM966.216 67.74L952.749 59.1007C952.735 59.1227 952.72 59.1447 952.706 59.1668L966.216 67.74ZM948.828 81.172L953.658 96.4255C953.735 96.4012 953.811 96.3764 953.887 96.3509L948.828 81.172ZM952.508 42.072L957.567 57.2509C957.865 57.1518 958.159 57.044 958.45 56.9276L952.508 42.072ZM954.716 35.264L940.405 42.4194C940.559 42.7268 940.722 43.0291 940.895 43.3259L954.716 35.264ZM952.876 33.7L946.171 48.2274C946.604 48.4272 947.045 48.6075 947.494 48.7679L952.876 33.7ZM946.344 33.7L951.725 48.7679C952.036 48.6569 952.343 48.5363 952.646 48.4063L946.344 33.7ZM944.412 35.264L930.591 27.2021C930.514 27.3344 930.439 27.4679 930.365 27.6024L944.412 35.264ZM944.504 40.416L930.683 48.4779C930.954 48.942 931.248 49.3922 931.564 49.8267L944.504 40.416ZM936.776 66.92C936.768 66.92 936.779 66.9197 936.804 66.9227C936.828 66.9257 936.857 66.9308 936.884 66.9377L929.123 97.9823C931.643 98.6121 934.204 98.92 936.776 98.92V66.92ZM936.3 66.8032C937.928 67.1459 939.443 67.8286 940.732 68.7548C941.981 69.6522 942.787 70.6112 943.265 71.3091L916.855 89.3789C919.518 93.2714 923.776 96.868 929.708 98.1168L936.3 66.8032ZM943.588 71.8001C944.156 72.6997 944.482 73.4783 944.665 73.9954C944.848 74.5163 944.928 74.8897 944.958 75.0494C945.01 75.3291 944.956 75.1918 944.956 74.456H912.956C912.956 77.7491 913.23 83.6606 916.532 88.8879L943.588 71.8001ZM944.956 74.456C944.956 73.7183 945.015 73.658 944.935 74.053C944.89 74.2739 944.78 74.7419 944.535 75.3705C944.291 75.9965 943.861 76.9138 943.123 77.9358L917.181 59.2002C913.199 64.7141 912.956 71.222 912.956 74.456H944.956ZM943.033 78.0592C942.479 78.8099 941.623 79.7247 940.388 80.5363C939.129 81.3633 937.744 81.9069 936.366 82.1694L930.378 50.7346C924.702 51.8158 920.252 55.0303 917.271 59.0768L943.033 78.0592ZM936.234 82.1939C936.612 82.1251 937.034 82.084 937.512 82.084V50.084C935.169 50.084 932.83 50.2882 930.51 50.7101L936.234 82.1939ZM937.512 82.084C941.592 82.084 946.011 81.5535 950.28 79.9011L938.728 50.0589C938.986 49.9589 939.049 49.9699 938.834 50.0038C938.619 50.0378 938.193 50.084 937.512 50.084V82.084ZM950.122 79.9613C953.473 78.7046 956.936 76.8627 959.991 74.1127L938.584 50.3273C938.891 50.0508 939.114 49.9147 939.176 49.879C939.235 49.8451 939.156 49.8975 938.886 49.9987L950.122 79.9613ZM959.7 74.3681C961.888 72.4926 964.112 70.1512 965.884 67.2512L938.579 50.5648C938.801 50.2014 938.977 49.9949 939.031 49.9342C939.085 49.8734 939.049 49.923 938.875 50.0719L959.7 74.3681ZM965.545 67.7832C966.596 66.2063 967.98 63.9151 968.883 61.2077L938.525 51.0883C938.65 50.7113 938.769 50.4237 938.853 50.2363C938.937 50.0463 939.003 49.9192 939.034 49.8606C939.09 49.7549 939.071 49.8051 938.919 50.0328L965.545 67.7832ZM968.473 62.3018C968.481 62.2835 968.522 62.1837 968.529 62.1682C968.619 61.9506 968.465 62.3214 968.555 62.1045C968.588 62.0253 968.535 62.1526 968.568 62.0735C968.584 62.0349 968.558 62.0968 968.574 62.0583C968.591 62.0178 968.564 62.0835 968.581 62.0431C968.916 61.2397 968.344 62.6107 968.674 61.8188C968.999 61.0384 968.512 62.2083 968.818 61.4738C969.04 60.9398 968.651 61.8756 968.868 61.3531C968.888 61.3048 968.889 61.3036 968.904 61.2668C968.91 61.253 968.925 61.2174 968.926 61.2151C968.929 61.2085 968.924 61.2196 968.927 61.213C968.929 61.2077 968.925 61.2163 968.927 61.211C968.929 61.208 968.927 61.2131 968.928 61.2101C968.926 61.2143 968.93 61.2059 968.928 61.2101C968.928 61.21 968.928 61.2089 968.928 61.2088C968.928 61.2087 968.929 61.2085 968.929 61.2084C968.93 61.2054 968.93 61.2045 968.931 61.2022C968.933 61.1973 968.93 61.205 968.932 61.2003C968.932 61.1998 968.932 61.1997 968.932 61.1992C968.933 61.1987 968.932 61.1995 968.933 61.1989C968.933 61.199 968.933 61.1988 968.933 61.1989V61.1978C968.933 61.1978 968.933 61.1978 954.164 55.044C939.394 48.8902 939.394 48.8902 939.394 48.8902C939.394 48.8908 939.394 48.8918 939.393 48.8926C939.393 48.8928 939.393 48.8937 939.393 48.8939C939.391 48.899 939.391 48.8994 939.387 48.9074C939.382 48.9212 939.385 48.9123 939.378 48.929C939.36 48.9721 939.385 48.9132 939.366 48.9592C939.311 49.0907 939.353 48.9887 939.279 49.1662C938.731 50.4834 939.56 48.4929 938.934 49.9942L968.473 62.3018ZM943.829 67.2582L945.025 68.2702L965.695 43.8418L964.499 42.8298L943.829 67.2582ZM955.36 56.056C949.892 41.0193 949.892 41.0193 949.892 41.0193C949.892 41.0192 949.892 41.0194 949.892 41.0193C949.891 41.0196 949.892 41.0192 949.891 41.0195C949.888 41.0205 949.893 41.019 949.89 41.0201C949.887 41.021 949.891 41.0194 949.889 41.0204C949.889 41.0205 949.888 41.0207 949.888 41.0207C949.864 41.0294 949.902 41.0155 949.876 41.025C949.85 41.0346 949.885 41.0217 949.856 41.0322C949.855 41.0328 949.856 41.0322 949.855 41.0328C949.855 41.0329 949.854 41.033 949.854 41.0331C949.854 41.033 949.854 41.0332 949.854 41.0331C949.854 41.0332 949.853 41.0335 949.852 41.0336C949.852 41.0335 949.852 41.0337 949.852 41.0336C949.851 41.0337 949.851 41.0341 949.851 41.0342C949.851 41.0343 949.85 41.0344 949.85 41.0345C949.85 41.0346 949.85 41.0347 949.849 41.0348C949.849 41.0349 949.849 41.035 949.848 41.0351C949.848 41.035 949.848 41.0352 949.848 41.0351C949.847 41.0352 949.847 41.0356 949.847 41.0357C949.845 41.0365 949.847 41.0354 949.845 41.0363C949.845 41.0365 949.844 41.0367 949.843 41.0369C949.79 41.0565 949.883 41.0225 949.829 41.0423C949.576 41.1343 950.013 40.9752 949.75 41.071C949.734 41.0768 949.717 41.083 949.698 41.0897C949.56 41.14 949.808 41.0496 949.669 41.1002C949.665 41.102 949.66 41.1038 949.654 41.1056C949.608 41.1226 949.686 41.0943 949.639 41.1113C948.878 41.3879 950.126 40.9343 949.323 41.2263C948.88 41.3874 949.669 41.1002 949.224 41.2622C949.223 41.2626 949.222 41.263 949.221 41.2634C949.219 41.2638 949.218 41.2642 949.217 41.2646C949.216 41.265 949.215 41.2654 949.214 41.2658C949.213 41.2661 949.212 41.2665 949.211 41.2669C949.2 41.2709 949.215 41.2653 949.204 41.2693C949.203 41.2697 949.202 41.2701 949.201 41.2705C949.2 41.2709 949.199 41.2713 949.198 41.2717C949.197 41.2721 949.196 41.2725 949.195 41.2729C949.193 41.2733 949.192 41.2737 949.191 41.2741C949.16 41.2853 949.216 41.2652 949.185 41.2765C949.18 41.278 949.176 41.2797 949.171 41.2813C948.963 41.357 949.353 41.2153 949.144 41.2911C949.113 41.3026 949.163 41.2845 949.131 41.296C949.117 41.3011 949.131 41.296 949.117 41.301C949.108 41.3044 949.098 41.3078 949.089 41.3112C949.08 41.3146 949.084 41.3129 949.075 41.3163C949.035 41.331 949.108 41.3043 949.068 41.3189C949.067 41.3194 949.065 41.3198 949.064 41.3202C949.063 41.3207 949.062 41.3211 949.061 41.3215C948.851 41.3979 949.213 41.2661 949.002 41.3427C948.982 41.35 948.993 41.3463 948.972 41.3536C948.932 41.3683 948.983 41.3499 948.942 41.3647C948.859 41.3947 948.963 41.357 948.88 41.3873L959.816 71.4607C960.194 71.3232 959.922 71.4218 960.258 71.2997C960.769 71.114 959.932 71.4183 960.432 71.2364C960.663 71.1526 960.279 71.292 960.507 71.2091C960.547 71.1948 960.538 71.1981 960.575 71.1847C960.722 71.1311 960.548 71.1942 960.685 71.1444C960.717 71.1329 960.743 71.1234 960.764 71.1157C960.854 71.0831 960.705 71.1373 960.792 71.1056C960.816 71.097 960.791 71.1061 960.812 71.0985C960.829 71.0922 960.802 71.1019 960.819 71.0959C960.826 71.0934 960.817 71.0964 960.824 71.0941C960.826 71.0933 960.825 71.0937 960.827 71.0931C960.826 71.0935 960.828 71.0927 960.827 71.0931C960.828 71.0931 960.828 71.0927 960.828 71.0927C960.828 71.0927 960.828 71.0927 955.36 56.056ZM948.405 41.5684C948.465 41.5446 948.412 41.5678 948.207 41.6361C948.011 41.7014 947.73 41.7902 947.349 41.9021L956.378 72.6018C957.639 72.231 959.008 71.7924 960.29 71.2796L948.405 41.5684ZM948.199 41.6773C948.394 41.6315 948.552 41.62 948.644 41.62V73.62C950.944 73.62 953.248 73.3632 955.528 72.8267L948.199 41.6773ZM948.644 41.62C947.452 41.62 946.576 41.3712 945.744 40.9158L930.384 68.9882C936.053 72.0901 942.23 73.62 948.644 73.62V41.62ZM945.744 40.9158C944.571 40.2741 943.919 39.6155 943.469 38.9553L917.018 56.9647C920.494 62.0699 925.055 66.0726 930.384 68.9882L945.744 40.9158ZM943.469 38.9553C943.388 38.8361 943.345 38.7556 943.325 38.7141C943.305 38.6735 943.301 38.6576 943.302 38.6626C943.304 38.6678 943.305 38.6734 943.305 38.672C943.304 38.67 943.3 38.6408 943.3 38.576H911.3C911.3 45.2747 913.313 51.5222 917.018 56.9647L943.469 38.9553ZM943.3 38.576C943.3 37.351 943.561 36.7006 943.87 36.1975L916.617 19.4264C913.001 25.302 911.3 31.8277 911.3 38.576H943.3ZM943.87 36.1975C944.376 35.3753 944.985 34.7774 945.926 34.2545L930.385 6.28148C924.703 9.43861 920.037 13.8699 916.617 19.4264L943.87 36.1975ZM946.122 34.144C946.826 33.7397 947.754 33.416 949.288 33.416V1.416C942.603 1.416 936.11 2.99358 930.19 6.39195L946.122 34.144ZM949.288 33.416C951.719 33.416 952.875 33.9314 953.428 34.2707L970.172 7.00125C963.733 3.04731 956.547 1.416 949.288 1.416V33.416ZM953.603 34.3771C954.174 34.7173 954.74 35.2126 955.316 36.4429L984.291 22.8611C981.188 16.2407 976.418 10.7254 969.996 6.89489L953.603 34.3771ZM955.404 36.6269C956.011 37.8793 956.656 40.093 956.656 43.82H988.656C988.656 36.507 987.399 29.2754 984.203 22.6771L955.404 36.6269ZM956.656 43.82C956.656 47.2147 956.255 50.1404 955.563 52.6741L986.436 61.0939C987.953 55.5316 988.656 49.748 988.656 43.82H956.656ZM955.58 52.6139C954.874 55.1644 953.908 57.293 952.749 59.1007L979.683 76.3793C982.694 71.6856 984.918 66.5769 986.419 61.1541L955.58 52.6139ZM952.706 59.1668C951.665 60.8083 950.439 62.1431 948.996 63.2558L968.532 88.6002C972.976 85.1742 976.719 81.0503 979.725 76.3132L952.706 59.1668ZM948.996 63.2558C947.531 64.3849 945.824 65.3077 943.768 65.9931L953.887 96.3509C959.191 94.583 964.109 92.0098 968.532 88.6002L948.996 63.2558ZM943.997 65.9185C942.066 66.5303 939.698 66.92 936.776 66.92V98.92C942.562 98.92 948.23 98.1444 953.658 96.4255L943.997 65.9185ZM949.196 58.532C951.674 58.532 954.58 58.2467 957.567 57.2509L947.448 26.8931C948.044 26.6944 948.51 26.6078 948.789 26.5691C949.068 26.5303 949.214 26.532 949.196 26.532V58.532ZM958.45 56.9276C961.637 55.6529 964.991 53.4565 967.563 49.9188L941.684 31.0972C943.276 28.9088 945.219 27.7551 946.565 27.2164L958.45 56.9276ZM967.563 49.9188C970.105 46.4249 971.36 42.3421 971.36 38.208H939.36C939.36 35.7913 940.124 33.2419 941.684 31.0972L967.563 49.9188ZM971.36 38.208C971.36 35.3206 970.886 31.2303 968.536 27.2021L940.895 43.3259C939.404 40.7697 939.36 38.642 939.36 38.208H971.36ZM969.027 28.1086C966.607 23.2699 962.544 20.1631 958.257 18.6321L947.494 48.7679C946.343 48.3565 944.966 47.658 943.617 46.512C942.245 45.3456 941.163 43.9347 940.405 42.4194L969.027 28.1086ZM959.581 19.1726C955.858 17.4546 952.199 17.148 949.656 17.148V49.148C949.629 49.148 949.307 49.1482 948.769 49.056C948.24 48.9652 947.307 48.752 946.171 48.2274L959.581 19.1726ZM949.656 17.148C947.025 17.148 943.57 17.4813 940.041 18.9937L952.646 48.4063C951.694 48.8143 950.916 48.9899 950.446 49.0683C949.973 49.1471 949.69 49.148 949.656 49.148V17.148ZM940.962 18.6321C936.822 20.1109 933.059 22.9712 930.591 27.2021L958.232 43.3259C957.499 44.5828 956.51 45.7641 955.284 46.7569C954.07 47.7398 952.825 48.3751 951.725 48.7679L940.962 18.6321ZM930.365 27.6024C928.221 31.5337 927.86 35.4499 927.86 38.024H959.86C959.86 38.2534 959.844 38.8121 959.687 39.5979C959.53 40.384 959.195 41.5742 958.458 42.9256L930.365 27.6024ZM927.86 38.024C927.86 41.6925 928.815 45.2751 930.683 48.4779L958.324 32.3541C959.334 34.0849 959.86 36.0729 959.86 38.024H927.86ZM931.564 49.8267C933.747 52.829 936.588 55.0568 939.731 56.5074L953.141 27.4527C954.689 28.1673 956.241 29.3523 957.443 31.0053L931.564 49.8267ZM939.731 56.5074C942.987 58.0104 946.266 58.532 949.196 58.532V26.532C950.04 26.532 951.479 26.6857 953.141 27.4527L939.731 56.5074Z" fill="#D13834"/>
<rect x="839" y="31" width="21" height="40" fill="#D13834"/>
<rect x="936" y="29" width="24" height="17" fill="#D13834"/>
</svg>
